<svg xmlns="http://www.w3.org/2000/svg" xmlns:xlink="http://www.w3.org/1999/xlink" width="500" zoomAndPan="magnify" viewBox="0 0 375 374.999991" height="500" preserveAspectRatio="xMidYMid meet" version="1.0"><defs><g/><clipPath id="d6fc10cd9f"><path d="M 261 257.40625 L 324 257.40625 L 324 375 L 261 375 Z M 261 257.40625 " clip-rule="nonzero"/></clipPath></defs><rect x="-37.5" width="450" fill="#ffffff" y="-37.499999" height="449.999989" fill-opacity="1"/><rect x="-37.5" width="450" fill="#ffffff" y="-37.499999" height="449.999989" fill-opacity="1"/><rect x="-37.5" width="450" fill="#ffde59" y="-37.499999" height="449.999989" fill-opacity="1"/><g fill="#000000" fill-opacity="1"><g transform="translate(31.977743, 101.233814)"><g><path d="M 40.53125 -9 C 40.832031 -7.800781 40.984375 -6.300781 40.984375 -4.5 C 40.984375 -2.769531 40.832031 -1.269531 40.53125 0 L 9 0 C 8.707031 -1.269531 8.5625 -2.769531 8.5625 -4.5 C 8.5625 -6.300781 8.707031 -7.800781 9 -9 C 8.707031 -10.28125 8.5625 -11.785156 8.5625 -13.515625 C 8.5625 -15.316406 8.707031 -16.816406 9 -18.015625 C 8.707031 -19.285156 8.5625 -20.785156 8.5625 -22.515625 C 8.5625 -24.316406 8.707031 -25.816406 9 -27.015625 C 8.707031 -28.296875 8.5625 -29.796875 8.5625 -31.515625 C 8.5625 -33.316406 8.707031 -34.820312 9 -36.03125 C 8.707031 -37.300781 8.5625 -38.800781 8.5625 -40.53125 C 8.5625 -42.332031 8.707031 -43.832031 9 -45.03125 C 8.707031 -46.300781 8.5625 -47.800781 8.5625 -49.53125 C 8.5625 -51.332031 8.707031 -52.832031 9 -54.03125 C 8.707031 -55.3125 8.5625 -56.816406 8.5625 -58.546875 C 8.5625 -60.347656 8.707031 -61.847656 9 -63.046875 L 18.015625 -63.046875 C 18.316406 -61.847656 18.46875 -60.347656 18.46875 -58.546875 C 18.46875 -56.816406 18.316406 -55.3125 18.015625 -54.03125 C 18.316406 -52.832031 18.46875 -51.332031 18.46875 -49.53125 C 18.46875 -47.800781 18.316406 -46.300781 18.015625 -45.03125 C 18.316406 -43.832031 18.46875 -42.332031 18.46875 -40.53125 C 18.46875 -38.800781 18.316406 -37.300781 18.015625 -36.03125 C 18.316406 -34.820312 18.46875 -33.316406 18.46875 -31.515625 C 18.46875 -29.796875 18.316406 -28.296875 18.015625 -27.015625 C 18.316406 -25.816406 18.46875 -24.316406 18.46875 -22.515625 C 18.46875 -20.785156 18.316406 -19.285156 18.015625 -18.015625 C 18.316406 -16.816406 18.46875 -15.316406 18.46875 -13.515625 C 18.46875 -11.785156 18.316406 -10.28125 18.015625 -9 Z M 40.53125 -9 "/></g></g></g><g fill="#000000" fill-opacity="1"><g transform="translate(83.315322, 101.233814)"><g><path d="M 18.015625 -27.015625 C 18.316406 -25.816406 18.46875 -24.316406 18.46875 -22.515625 C 18.46875 -20.785156 18.316406 -19.285156 18.015625 -18.015625 C 18.316406 -16.816406 18.46875 -15.316406 18.46875 -13.515625 C 18.46875 -11.785156 18.316406 -10.28125 18.015625 -9 L 36.03125 -9 C 36.320312 -7.800781 36.46875 -6.300781 36.46875 -4.5 C 36.46875 -2.769531 36.320312 -1.269531 36.03125 0 L 9 0 C 8.707031 -1.269531 8.5625 -2.769531 8.5625 -4.5 C 8.5625 -6.300781 8.707031 -7.800781 9 -9 C 8.707031 -10.28125 8.5625 -11.785156 8.5625 -13.515625 C 8.5625 -15.316406 8.707031 -16.816406 9 -18.015625 C 8.707031 -19.285156 8.5625 -20.785156 8.5625 -22.515625 C 8.5625 -24.316406 8.707031 -25.816406 9 -27.015625 C 8.707031 -28.296875 8.5625 -29.796875 8.5625 -31.515625 C 8.5625 -33.316406 8.707031 -34.820312 9 -36.03125 C 8.707031 -37.300781 8.5625 -38.800781 8.5625 -40.53125 C 8.5625 -42.332031 8.707031 -43.832031 9 -45.03125 C 8.707031 -46.300781 8.5625 -47.800781 8.5625 -49.53125 C 8.5625 -51.332031 8.707031 -52.832031 9 -54.03125 C 8.707031 -55.3125 8.5625 -56.816406 8.5625 -58.546875 C 8.5625 -60.347656 8.707031 -61.847656 9 -63.046875 L 36.03125 -63.046875 C 36.320312 -61.847656 36.46875 -60.347656 36.46875 -58.546875 C 36.46875 -56.816406 36.320312 -55.3125 36.03125 -54.03125 L 18.015625 -54.03125 C 18.316406 -52.832031 18.46875 -51.332031 18.46875 -49.53125 C 18.46875 -47.800781 18.316406 -46.300781 18.015625 -45.03125 C 18.316406 -43.832031 18.46875 -42.332031 18.46875 -40.53125 C 18.46875 -38.800781 18.316406 -37.300781 18.015625 -36.03125 L 36.03125 -36.03125 C 36.320312 -34.820312 36.46875 -33.316406 36.46875 -31.515625 C 36.46875 -29.796875 36.320312 -28.296875 36.03125 -27.015625 Z M 18.015625 -27.015625 "/></g></g></g><g fill="#000000" fill-opacity="1"><g transform="translate(134.652902, 101.233814)"><g><path d="M 40.53125 -36.03125 C 40.832031 -34.820312 40.984375 -33.316406 40.984375 -31.515625 C 40.984375 -29.796875 40.832031 -28.296875 40.53125 -27.015625 C 40.832031 -25.816406 40.984375 -24.316406 40.984375 -22.515625 C 40.984375 -20.785156 40.832031 -19.285156 40.53125 -18.015625 C 40.832031 -16.816406 40.984375 -15.316406 40.984375 -13.515625 C 40.984375 -11.785156 40.832031 -10.28125 40.53125 -9 L 36.03125 -9 C 36.320312 -7.800781 36.46875 -6.300781 36.46875 -4.5 C 36.46875 -2.769531 36.320312 -1.269531 36.03125 0 L 13.515625 0 C 13.210938 -1.269531 13.0625 -2.769531 13.0625 -4.5 C 13.0625 -6.300781 13.210938 -7.800781 13.515625 -9 L 9 -9 C 8.707031 -10.28125 8.5625 -11.785156 8.5625 -13.515625 C 8.5625 -15.316406 8.707031 -16.816406 9 -18.015625 L 4.5 -18.015625 C 4.195312 -19.285156 4.046875 -20.785156 4.046875 -22.515625 C 4.046875 -24.316406 4.195312 -25.816406 4.5 -27.015625 C 4.195312 -28.296875 4.046875 -29.796875 4.046875 -31.515625 C 4.046875 -33.316406 4.195312 -34.820312 4.5 -36.03125 C 4.195312 -37.300781 4.046875 -38.800781 4.046875 -40.53125 C 4.046875 -42.332031 4.195312 -43.832031 4.5 -45.03125 L 9 -45.03125 C 8.707031 -46.300781 8.5625 -47.800781 8.5625 -49.53125 C 8.5625 -51.332031 8.707031 -52.832031 9 -54.03125 L 13.515625 -54.03125 C 13.210938 -55.3125 13.0625 -56.816406 13.0625 -58.546875 C 13.0625 -60.347656 13.210938 -61.847656 13.515625 -63.046875 L 36.03125 -63.046875 C 36.320312 -61.847656 36.46875 -60.347656 36.46875 -58.546875 C 36.46875 -56.816406 36.320312 -55.3125 36.03125 -54.03125 L 40.53125 -54.03125 C 40.832031 -52.832031 40.984375 -51.332031 40.984375 -49.53125 C 40.984375 -47.800781 40.832031 -46.300781 40.53125 -45.03125 L 31.515625 -45.03125 C 31.222656 -46.300781 31.078125 -47.800781 31.078125 -49.53125 C 31.078125 -51.332031 31.222656 -52.832031 31.515625 -54.03125 L 18.015625 -54.03125 C 18.316406 -52.832031 18.46875 -51.332031 18.46875 -49.53125 C 18.46875 -47.800781 18.316406 -46.300781 18.015625 -45.03125 L 13.515625 -45.03125 C 13.804688 -43.832031 13.953125 -42.332031 13.953125 -40.53125 C 13.953125 -38.800781 13.804688 -37.300781 13.515625 -36.03125 C 13.804688 -34.820312 13.953125 -33.316406 13.953125 -31.515625 C 13.953125 -29.796875 13.804688 -28.296875 13.515625 -27.015625 C 13.804688 -25.816406 13.953125 -24.316406 13.953125 -22.515625 C 13.953125 -20.785156 13.804688 -19.285156 13.515625 -18.015625 L 18.015625 -18.015625 C 18.316406 -16.816406 18.46875 -15.316406 18.46875 -13.515625 C 18.46875 -11.785156 18.316406 -10.28125 18.015625 -9 L 31.515625 -9 C 31.222656 -10.28125 31.078125 -11.785156 31.078125 -13.515625 C 31.078125 -15.316406 31.222656 -16.816406 31.515625 -18.015625 C 31.222656 -19.285156 31.078125 -20.785156 31.078125 -22.515625 C 31.078125 -24.316406 31.222656 -25.816406 31.515625 -27.015625 L 24.765625 -27.015625 C 24.460938 -28.296875 24.3125 -29.796875 24.3125 -31.515625 C 24.3125 -33.316406 24.460938 -34.820312 24.765625 -36.03125 Z M 40.53125 -36.03125 "/></g></g></g><g fill="#000000" fill-opacity="1"><g transform="translate(185.990485, 101.233814)"><g><path d="M 40.984375 -13.515625 C 40.984375 -11.785156 40.832031 -10.28125 40.53125 -9 C 40.832031 -7.800781 40.984375 -6.300781 40.984375 -4.5 C 40.984375 -2.769531 40.832031 -1.269531 40.53125 0 L 31.515625 0 C 31.222656 -1.269531 31.078125 -2.769531 31.078125 -4.5 C 31.078125 -6.300781 31.222656 -7.800781 31.515625 -9 C 31.222656 -10.28125 31.078125 -11.785156 31.078125 -13.515625 C 31.078125 -15.316406 31.222656 -16.816406 31.515625 -18.015625 L 13.515625 -18.015625 C 13.804688 -16.816406 13.953125 -15.316406 13.953125 -13.515625 C 13.953125 -11.785156 13.804688 -10.28125 13.515625 -9 C 13.804688 -7.800781 13.953125 -6.300781 13.953125 -4.5 C 13.953125 -2.769531 13.804688 -1.269531 13.515625 0 L 4.5 0 C 4.195312 -1.269531 4.046875 -2.769531 4.046875 -4.5 C 4.046875 -6.300781 4.195312 -7.800781 4.5 -9 C 4.195312 -10.28125 4.046875 -11.785156 4.046875 -13.515625 C 4.046875 -15.316406 4.195312 -16.816406 4.5 -18.015625 L 7.875 -18.015625 C 7.582031 -19.285156 7.4375 -20.785156 7.4375 -22.515625 C 7.4375 -24.316406 7.582031 -25.816406 7.875 -27.015625 C 7.582031 -28.296875 7.4375 -29.796875 7.4375 -31.515625 C 7.4375 -33.316406 7.582031 -34.820312 7.875 -36.03125 L 10.125 -36.03125 C 9.832031 -37.300781 9.6875 -38.800781 9.6875 -40.53125 C 9.6875 -42.332031 9.832031 -43.832031 10.125 -45.03125 L 13.515625 -45.03125 C 13.210938 -46.300781 13.0625 -47.800781 13.0625 -49.53125 C 13.0625 -51.332031 13.210938 -52.832031 13.515625 -54.03125 L 15.765625 -54.03125 C 15.460938 -55.3125 15.3125 -56.816406 15.3125 -58.546875 C 15.3125 -60.347656 15.460938 -61.847656 15.765625 -63.046875 L 29.265625 -63.046875 C 29.566406 -61.847656 29.71875 -60.347656 29.71875 -58.546875 C 29.71875 -56.816406 29.566406 -55.3125 29.265625 -54.03125 L 31.515625 -54.03125 C 31.816406 -52.832031 31.96875 -51.332031 31.96875 -49.53125 C 31.96875 -47.800781 31.816406 -46.300781 31.515625 -45.03125 L 34.90625 -45.03125 C 35.195312 -43.832031 35.34375 -42.332031 35.34375 -40.53125 C 35.34375 -38.800781 35.195312 -37.300781 34.90625 -36.03125 L 37.15625 -36.03125 C 37.445312 -34.820312 37.59375 -33.316406 37.59375 -31.515625 C 37.59375 -29.796875 37.445312 -28.296875 37.15625 -27.015625 C 37.445312 -25.816406 37.59375 -24.316406 37.59375 -22.515625 C 37.59375 -20.785156 37.445312 -19.285156 37.15625 -18.015625 L 40.53125 -18.015625 C 40.832031 -16.816406 40.984375 -15.316406 40.984375 -13.515625 Z M 28.140625 -27.015625 C 27.835938 -28.296875 27.6875 -29.796875 27.6875 -31.515625 C 27.6875 -33.316406 27.835938 -34.820312 28.140625 -36.03125 L 25.890625 -36.03125 C 25.585938 -37.300781 25.4375 -38.800781 25.4375 -40.53125 C 25.4375 -42.332031 25.585938 -43.832031 25.890625 -45.03125 L 19.140625 -45.03125 C 19.441406 -43.832031 19.59375 -42.332031 19.59375 -40.53125 C 19.59375 -38.800781 19.441406 -37.300781 19.140625 -36.03125 L 16.890625 -36.03125 C 17.191406 -34.820312 17.34375 -33.316406 17.34375 -31.515625 C 17.34375 -29.796875 17.191406 -28.296875 16.890625 -27.015625 Z M 28.140625 -27.015625 "/></g></g></g><g fill="#000000" fill-opacity="1"><g transform="translate(237.328061, 101.233814)"><g><path d="M 40.53125 -18.015625 C 40.832031 -16.816406 40.984375 -15.316406 40.984375 -13.515625 C 40.984375 -11.785156 40.832031 -10.28125 40.53125 -9 L 36.03125 -9 C 36.320312 -7.800781 36.46875 -6.300781 36.46875 -4.5 C 36.46875 -2.769531 36.320312 -1.269531 36.03125 0 L 13.515625 0 C 13.210938 -1.269531 13.0625 -2.769531 13.0625 -4.5 C 13.0625 -6.300781 13.210938 -7.800781 13.515625 -9 L 9 -9 C 8.707031 -10.28125 8.5625 -11.785156 8.5625 -13.515625 C 8.5625 -15.316406 8.707031 -16.816406 9 -18.015625 L 4.5 -18.015625 C 4.195312 -19.285156 4.046875 -20.785156 4.046875 -22.515625 C 4.046875 -24.316406 4.195312 -25.816406 4.5 -27.015625 C 4.195312 -28.296875 4.046875 -29.796875 4.046875 -31.515625 C 4.046875 -33.316406 4.195312 -34.820312 4.5 -36.03125 C 4.195312 -37.300781 4.046875 -38.800781 4.046875 -40.53125 C 4.046875 -42.332031 4.195312 -43.832031 4.5 -45.03125 L 9 -45.03125 C 8.707031 -46.300781 8.5625 -47.800781 8.5625 -49.53125 C 8.5625 -51.332031 8.707031 -52.832031 9 -54.03125 L 13.515625 -54.03125 C 13.210938 -55.3125 13.0625 -56.816406 13.0625 -58.546875 C 13.0625 -60.347656 13.210938 -61.847656 13.515625 -63.046875 L 36.03125 -63.046875 C 36.320312 -61.847656 36.46875 -60.347656 36.46875 -58.546875 C 36.46875 -56.816406 36.320312 -55.3125 36.03125 -54.03125 L 40.53125 -54.03125 C 40.832031 -52.832031 40.984375 -51.332031 40.984375 -49.53125 C 40.984375 -47.800781 40.832031 -46.300781 40.53125 -45.03125 L 31.515625 -45.03125 C 31.222656 -46.300781 31.078125 -47.800781 31.078125 -49.53125 C 31.078125 -51.332031 31.222656 -52.832031 31.515625 -54.03125 L 18.015625 -54.03125 C 18.316406 -52.832031 18.46875 -51.332031 18.46875 -49.53125 C 18.46875 -47.800781 18.316406 -46.300781 18.015625 -45.03125 L 13.515625 -45.03125 C 13.804688 -43.832031 13.953125 -42.332031 13.953125 -40.53125 C 13.953125 -38.800781 13.804688 -37.300781 13.515625 -36.03125 C 13.804688 -34.820312 13.953125 -33.316406 13.953125 -31.515625 C 13.953125 -29.796875 13.804688 -28.296875 13.515625 -27.015625 C 13.804688 -25.816406 13.953125 -24.316406 13.953125 -22.515625 C 13.953125 -20.785156 13.804688 -19.285156 13.515625 -18.015625 L 18.015625 -18.015625 C 18.316406 -16.816406 18.46875 -15.316406 18.46875 -13.515625 C 18.46875 -11.785156 18.316406 -10.28125 18.015625 -9 L 31.515625 -9 C 31.222656 -10.28125 31.078125 -11.785156 31.078125 -13.515625 C 31.078125 -15.316406 31.222656 -16.816406 31.515625 -18.015625 Z M 40.53125 -18.015625 "/></g></g></g><g fill="#000000" fill-opacity="1"><g transform="translate(288.665637, 101.233814)"><g><path d="M 40.984375 -58.546875 C 40.984375 -56.816406 40.832031 -55.3125 40.53125 -54.03125 C 40.832031 -52.832031 40.984375 -51.332031 40.984375 -49.53125 C 40.984375 -47.800781 40.832031 -46.300781 40.53125 -45.03125 L 36.03125 -45.03125 C 36.320312 -43.832031 36.46875 -42.332031 36.46875 -40.53125 C 36.46875 -38.800781 36.320312 -37.300781 36.03125 -36.03125 L 31.515625 -36.03125 C 31.816406 -34.820312 31.96875 -33.316406 31.96875 -31.515625 C 31.96875 -29.796875 31.816406 -28.296875 31.515625 -27.015625 L 27.015625 -27.015625 C 27.316406 -25.816406 27.46875 -24.316406 27.46875 -22.515625 C 27.46875 -20.785156 27.316406 -19.285156 27.015625 -18.015625 C 27.316406 -16.816406 27.46875 -15.316406 27.46875 -13.515625 C 27.46875 -11.785156 27.316406 -10.28125 27.015625 -9 C 27.316406 -7.800781 27.46875 -6.300781 27.46875 -4.5 C 27.46875 -2.769531 27.316406 -1.269531 27.015625 0 L 18.015625 0 C 17.710938 -1.269531 17.5625 -2.769531 17.5625 -4.5 C 17.5625 -6.300781 17.710938 -7.800781 18.015625 -9 C 17.710938 -10.28125 17.5625 -11.785156 17.5625 -13.515625 C 17.5625 -15.316406 17.710938 -16.816406 18.015625 -18.015625 C 17.710938 -19.285156 17.5625 -20.785156 17.5625 -22.515625 C 17.5625 -24.316406 17.710938 -25.816406 18.015625 -27.015625 L 13.515625 -27.015625 C 13.210938 -28.296875 13.0625 -29.796875 13.0625 -31.515625 C 13.0625 -33.316406 13.210938 -34.820312 13.515625 -36.03125 L 9 -36.03125 C 8.707031 -37.300781 8.5625 -38.800781 8.5625 -40.53125 C 8.5625 -42.332031 8.707031 -43.832031 9 -45.03125 L 4.5 -45.03125 C 4.195312 -46.300781 4.046875 -47.800781 4.046875 -49.53125 C 4.046875 -51.332031 4.195312 -52.832031 4.5 -54.03125 C 4.195312 -55.3125 4.046875 -56.816406 4.046875 -58.546875 C 4.046875 -60.347656 4.195312 -61.847656 4.5 -63.046875 L 13.515625 -63.046875 C 13.804688 -61.847656 13.953125 -60.347656 13.953125 -58.546875 C 13.953125 -56.816406 13.804688 -55.3125 13.515625 -54.03125 C 13.804688 -52.832031 13.953125 -51.332031 13.953125 -49.53125 C 13.953125 -47.800781 13.804688 -46.300781 13.515625 -45.03125 L 18.015625 -45.03125 C 18.316406 -43.832031 18.46875 -42.332031 18.46875 -40.53125 C 18.46875 -38.800781 18.316406 -37.300781 18.015625 -36.03125 L 27.015625 -36.03125 C 26.710938 -37.300781 26.5625 -38.800781 26.5625 -40.53125 C 26.5625 -42.332031 26.710938 -43.832031 27.015625 -45.03125 L 31.515625 -45.03125 C 31.222656 -46.300781 31.078125 -47.800781 31.078125 -49.53125 C 31.078125 -51.332031 31.222656 -52.832031 31.515625 -54.03125 C 31.222656 -55.3125 31.078125 -56.816406 31.078125 -58.546875 C 31.078125 -60.347656 31.222656 -61.847656 31.515625 -63.046875 L 40.53125 -63.046875 C 40.832031 -61.847656 40.984375 -60.347656 40.984375 -58.546875 Z M 40.984375 -58.546875 "/></g></g></g><g fill="#000000" fill-opacity="1"><g transform="translate(31.977743, 179.929588)"><g><path d="M 40.53125 -18.015625 C 40.832031 -16.816406 40.984375 -15.316406 40.984375 -13.515625 C 40.984375 -11.785156 40.832031 -10.28125 40.53125 -9 L 36.03125 -9 C 36.320312 -7.800781 36.46875 -6.300781 36.46875 -4.5 C 36.46875 -2.769531 36.320312 -1.269531 36.03125 0 L 13.515625 0 C 13.210938 -1.269531 13.0625 -2.769531 13.0625 -4.5 C 13.0625 -6.300781 13.210938 -7.800781 13.515625 -9 L 9 -9 C 8.707031 -10.28125 8.5625 -11.785156 8.5625 -13.515625 C 8.5625 -15.316406 8.707031 -16.816406 9 -18.015625 L 4.5 -18.015625 C 4.195312 -19.285156 4.046875 -20.785156 4.046875 -22.515625 C 4.046875 -24.316406 4.195312 -25.816406 4.5 -27.015625 C 4.195312 -28.296875 4.046875 -29.796875 4.046875 -31.515625 C 4.046875 -33.316406 4.195312 -34.820312 4.5 -36.03125 C 4.195312 -37.300781 4.046875 -38.800781 4.046875 -40.53125 C 4.046875 -42.332031 4.195312 -43.832031 4.5 -45.03125 L 9 -45.03125 C 8.707031 -46.300781 8.5625 -47.800781 8.5625 -49.53125 C 8.5625 -51.332031 8.707031 -52.832031 9 -54.03125 L 13.515625 -54.03125 C 13.210938 -55.3125 13.0625 -56.816406 13.0625 -58.546875 C 13.0625 -60.347656 13.210938 -61.847656 13.515625 -63.046875 L 36.03125 -63.046875 C 36.320312 -61.847656 36.46875 -60.347656 36.46875 -58.546875 C 36.46875 -56.816406 36.320312 -55.3125 36.03125 -54.03125 L 40.53125 -54.03125 C 40.832031 -52.832031 40.984375 -51.332031 40.984375 -49.53125 C 40.984375 -47.800781 40.832031 -46.300781 40.53125 -45.03125 L 31.515625 -45.03125 C 31.222656 -46.300781 31.078125 -47.800781 31.078125 -49.53125 C 31.078125 -51.332031 31.222656 -52.832031 31.515625 -54.03125 L 18.015625 -54.03125 C 18.316406 -52.832031 18.46875 -51.332031 18.46875 -49.53125 C 18.46875 -47.800781 18.316406 -46.300781 18.015625 -45.03125 L 13.515625 -45.03125 C 13.804688 -43.832031 13.953125 -42.332031 13.953125 -40.53125 C 13.953125 -38.800781 13.804688 -37.300781 13.515625 -36.03125 C 13.804688 -34.820312 13.953125 -33.316406 13.953125 -31.515625 C 13.953125 -29.796875 13.804688 -28.296875 13.515625 -27.015625 C 13.804688 -25.816406 13.953125 -24.316406 13.953125 -22.515625 C 13.953125 -20.785156 13.804688 -19.285156 13.515625 -18.015625 L 18.015625 -18.015625 C 18.316406 -16.816406 18.46875 -15.316406 18.46875 -13.515625 C 18.46875 -11.785156 18.316406 -10.28125 18.015625 -9 L 31.515625 -9 C 31.222656 -10.28125 31.078125 -11.785156 31.078125 -13.515625 C 31.078125 -15.316406 31.222656 -16.816406 31.515625 -18.015625 Z M 40.53125 -18.015625 "/></g></g></g><g fill="#000000" fill-opacity="1"><g transform="translate(83.315322, 179.929588)"><g><path d="M 40.53125 -36.03125 C 40.832031 -34.820312 40.984375 -33.316406 40.984375 -31.515625 C 40.984375 -29.796875 40.832031 -28.296875 40.53125 -27.015625 C 40.832031 -25.816406 40.984375 -24.316406 40.984375 -22.515625 C 40.984375 -20.785156 40.832031 -19.285156 40.53125 -18.015625 L 37.15625 -18.015625 C 37.445312 -16.816406 37.59375 -15.316406 37.59375 -13.515625 C 37.59375 -11.785156 37.445312 -10.28125 37.15625 -9 L 31.515625 -9 C 31.816406 -7.800781 31.96875 -6.300781 31.96875 -4.5 C 31.96875 -2.769531 31.816406 -1.269531 31.515625 0 L 13.515625 0 C 13.210938 -1.269531 13.0625 -2.769531 13.0625 -4.5 C 13.0625 -6.300781 13.210938 -7.800781 13.515625 -9 L 7.875 -9 C 7.582031 -10.28125 7.4375 -11.785156 7.4375 -13.515625 C 7.4375 -15.316406 7.582031 -16.816406 7.875 -18.015625 L 4.5 -18.015625 C 4.195312 -19.285156 4.046875 -20.785156 4.046875 -22.515625 C 4.046875 -24.316406 4.195312 -25.816406 4.5 -27.015625 C 4.195312 -28.296875 4.046875 -29.796875 4.046875 -31.515625 C 4.046875 -33.316406 4.195312 -34.820312 4.5 -36.03125 C 4.195312 -37.300781 4.046875 -38.800781 4.046875 -40.53125 C 4.046875 -42.332031 4.195312 -43.832031 4.5 -45.03125 L 7.875 -45.03125 C 7.582031 -46.300781 7.4375 -47.800781 7.4375 -49.53125 C 7.4375 -51.332031 7.582031 -52.832031 7.875 -54.03125 L 13.515625 -54.03125 C 13.210938 -55.3125 13.0625 -56.816406 13.0625 -58.546875 C 13.0625 -60.347656 13.210938 -61.847656 13.515625 -63.046875 L 31.515625 -63.046875 C 31.816406 -61.847656 31.96875 -60.347656 31.96875 -58.546875 C 31.96875 -56.816406 31.816406 -55.3125 31.515625 -54.03125 L 37.15625 -54.03125 C 37.445312 -52.832031 37.59375 -51.332031 37.59375 -49.53125 C 37.59375 -47.800781 37.445312 -46.300781 37.15625 -45.03125 L 40.53125 -45.03125 C 40.832031 -43.832031 40.984375 -42.332031 40.984375 -40.53125 C 40.984375 -38.800781 40.832031 -37.300781 40.53125 -36.03125 Z M 31.515625 -18.015625 C 31.222656 -19.285156 31.078125 -20.785156 31.078125 -22.515625 C 31.078125 -24.316406 31.222656 -25.816406 31.515625 -27.015625 C 31.222656 -28.296875 31.078125 -29.796875 31.078125 -31.515625 C 31.078125 -33.316406 31.222656 -34.820312 31.515625 -36.03125 C 31.222656 -37.300781 31.078125 -38.800781 31.078125 -40.53125 C 31.078125 -42.332031 31.222656 -43.832031 31.515625 -45.03125 L 28.140625 -45.03125 C 27.835938 -46.300781 27.6875 -47.800781 27.6875 -49.53125 C 27.6875 -51.332031 27.835938 -52.832031 28.140625 -54.03125 L 16.890625 -54.03125 C 17.191406 -52.832031 17.34375 -51.332031 17.34375 -49.53125 C 17.34375 -47.800781 17.191406 -46.300781 16.890625 -45.03125 L 13.515625 -45.03125 C 13.804688 -43.832031 13.953125 -42.332031 13.953125 -40.53125 C 13.953125 -38.800781 13.804688 -37.300781 13.515625 -36.03125 C 13.804688 -34.820312 13.953125 -33.316406 13.953125 -31.515625 C 13.953125 -29.796875 13.804688 -28.296875 13.515625 -27.015625 C 13.804688 -25.816406 13.953125 -24.316406 13.953125 -22.515625 C 13.953125 -20.785156 13.804688 -19.285156 13.515625 -18.015625 L 16.890625 -18.015625 C 17.191406 -16.816406 17.34375 -15.316406 17.34375 -13.515625 C 17.34375 -11.785156 17.191406 -10.28125 16.890625 -9 L 28.140625 -9 C 27.835938 -10.28125 27.6875 -11.785156 27.6875 -13.515625 C 27.6875 -15.316406 27.835938 -16.816406 28.140625 -18.015625 Z M 31.515625 -18.015625 "/></g></g></g><g fill="#000000" fill-opacity="1"><g transform="translate(134.652902, 179.929588)"><g><path d="M 40.53125 -36.03125 C 40.832031 -34.820312 40.984375 -33.316406 40.984375 -31.515625 C 40.984375 -29.796875 40.832031 -28.296875 40.53125 -27.015625 C 40.832031 -25.816406 40.984375 -24.316406 40.984375 -22.515625 C 40.984375 -20.785156 40.832031 -19.285156 40.53125 -18.015625 L 36.03125 -18.015625 C 36.320312 -16.816406 36.46875 -15.316406 36.46875 -13.515625 C 36.46875 -11.785156 36.320312 -10.28125 36.03125 -9 L 31.515625 -9 C 31.816406 -7.800781 31.96875 -6.300781 31.96875 -4.5 C 31.96875 -2.769531 31.816406 -1.269531 31.515625 0 L 4.5 0 C 4.195312 -1.269531 4.046875 -2.769531 4.046875 -4.5 C 4.046875 -6.300781 4.195312 -7.800781 4.5 -9 C 4.195312 -10.28125 4.046875 -11.785156 4.046875 -13.515625 C 4.046875 -15.316406 4.195312 -16.816406 4.5 -18.015625 C 4.195312 -19.285156 4.046875 -20.785156 4.046875 -22.515625 C 4.046875 -24.316406 4.195312 -25.816406 4.5 -27.015625 C 4.195312 -28.296875 4.046875 -29.796875 4.046875 -31.515625 C 4.046875 -33.316406 4.195312 -34.820312 4.5 -36.03125 C 4.195312 -37.300781 4.046875 -38.800781 4.046875 -40.53125 C 4.046875 -42.332031 4.195312 -43.832031 4.5 -45.03125 C 4.195312 -46.300781 4.046875 -47.800781 4.046875 -49.53125 C 4.046875 -51.332031 4.195312 -52.832031 4.5 -54.03125 C 4.195312 -55.3125 4.046875 -56.816406 4.046875 -58.546875 C 4.046875 -60.347656 4.195312 -61.847656 4.5 -63.046875 L 31.515625 -63.046875 C 31.816406 -61.847656 31.96875 -60.347656 31.96875 -58.546875 C 31.96875 -56.816406 31.816406 -55.3125 31.515625 -54.03125 L 36.03125 -54.03125 C 36.320312 -52.832031 36.46875 -51.332031 36.46875 -49.53125 C 36.46875 -47.800781 36.320312 -46.300781 36.03125 -45.03125 L 40.53125 -45.03125 C 40.832031 -43.832031 40.984375 -42.332031 40.984375 -40.53125 C 40.984375 -38.800781 40.832031 -37.300781 40.53125 -36.03125 Z M 31.515625 -18.015625 C 31.222656 -19.285156 31.078125 -20.785156 31.078125 -22.515625 C 31.078125 -24.316406 31.222656 -25.816406 31.515625 -27.015625 C 31.222656 -28.296875 31.078125 -29.796875 31.078125 -31.515625 C 31.078125 -33.316406 31.222656 -34.820312 31.515625 -36.03125 C 31.222656 -37.300781 31.078125 -38.800781 31.078125 -40.53125 C 31.078125 -42.332031 31.222656 -43.832031 31.515625 -45.03125 L 27.015625 -45.03125 C 26.710938 -46.300781 26.5625 -47.800781 26.5625 -49.53125 C 26.5625 -51.332031 26.710938 -52.832031 27.015625 -54.03125 L 13.515625 -54.03125 C 13.804688 -52.832031 13.953125 -51.332031 13.953125 -49.53125 C 13.953125 -47.800781 13.804688 -46.300781 13.515625 -45.03125 C 13.804688 -43.832031 13.953125 -42.332031 13.953125 -40.53125 C 13.953125 -38.800781 13.804688 -37.300781 13.515625 -36.03125 C 13.804688 -34.820312 13.953125 -33.316406 13.953125 -31.515625 C 13.953125 -29.796875 13.804688 -28.296875 13.515625 -27.015625 C 13.804688 -25.816406 13.953125 -24.316406 13.953125 -22.515625 C 13.953125 -20.785156 13.804688 -19.285156 13.515625 -18.015625 C 13.804688 -16.816406 13.953125 -15.316406 13.953125 -13.515625 C 13.953125 -11.785156 13.804688 -10.28125 13.515625 -9 L 27.015625 -9 C 26.710938 -10.28125 26.5625 -11.785156 26.5625 -13.515625 C 26.5625 -15.316406 26.710938 -16.816406 27.015625 -18.015625 Z M 31.515625 -18.015625 "/></g></g></g><g fill="#000000" fill-opacity="1"><g transform="translate(185.990485, 179.929588)"><g><path d="M 18.015625 -27.015625 C 18.316406 -25.816406 18.46875 -24.316406 18.46875 -22.515625 C 18.46875 -20.785156 18.316406 -19.285156 18.015625 -18.015625 C 18.316406 -16.816406 18.46875 -15.316406 18.46875 -13.515625 C 18.46875 -11.785156 18.316406 -10.28125 18.015625 -9 L 36.03125 -9 C 36.320312 -7.800781 36.46875 -6.300781 36.46875 -4.5 C 36.46875 -2.769531 36.320312 -1.269531 36.03125 0 L 9 0 C 8.707031 -1.269531 8.5625 -2.769531 8.5625 -4.5 C 8.5625 -6.300781 8.707031 -7.800781 9 -9 C 8.707031 -10.28125 8.5625 -11.785156 8.5625 -13.515625 C 8.5625 -15.316406 8.707031 -16.816406 9 -18.015625 C 8.707031 -19.285156 8.5625 -20.785156 8.5625 -22.515625 C 8.5625 -24.316406 8.707031 -25.816406 9 -27.015625 C 8.707031 -28.296875 8.5625 -29.796875 8.5625 -31.515625 C 8.5625 -33.316406 8.707031 -34.820312 9 -36.03125 C 8.707031 -37.300781 8.5625 -38.800781 8.5625 -40.53125 C 8.5625 -42.332031 8.707031 -43.832031 9 -45.03125 C 8.707031 -46.300781 8.5625 -47.800781 8.5625 -49.53125 C 8.5625 -51.332031 8.707031 -52.832031 9 -54.03125 C 8.707031 -55.3125 8.5625 -56.816406 8.5625 -58.546875 C 8.5625 -60.347656 8.707031 -61.847656 9 -63.046875 L 36.03125 -63.046875 C 36.320312 -61.847656 36.46875 -60.347656 36.46875 -58.546875 C 36.46875 -56.816406 36.320312 -55.3125 36.03125 -54.03125 L 18.015625 -54.03125 C 18.316406 -52.832031 18.46875 -51.332031 18.46875 -49.53125 C 18.46875 -47.800781 18.316406 -46.300781 18.015625 -45.03125 C 18.316406 -43.832031 18.46875 -42.332031 18.46875 -40.53125 C 18.46875 -38.800781 18.316406 -37.300781 18.015625 -36.03125 L 36.03125 -36.03125 C 36.320312 -34.820312 36.46875 -33.316406 36.46875 -31.515625 C 36.46875 -29.796875 36.320312 -28.296875 36.03125 -27.015625 Z M 18.015625 -27.015625 "/></g></g></g><g fill="#a21f1f" fill-opacity="1"><g transform="translate(33.243029, 290.671923)"><g><path d="M 64.910156 -22.863281 C 63.007812 -25.796875 60.019531 -26.085938 56.855469 -27.316406 C 48.503906 -30.121094 39.886719 -32.390625 31.394531 -35.292969 C 32.128906 -35.921875 31.382812 -36.636719 31.765625 -37.195312 C 33 -38.410156 32.320312 -38.769531 32.753906 -39.707031 C 35.492188 -43.28125 39.636719 -45.902344 43.007812 -49.355469 C 47.523438 -53.878906 52.472656 -57.386719 50.878906 -65.753906 C 49.511719 -72.945312 42.484375 -79.058594 34.113281 -77.464844 C 27.984375 -76.300781 22.730469 -73.101562 17.492188 -69.171875 C 15.691406 -67.730469 13.808594 -65.417969 11.335938 -64.945312 C 10.507812 -64.789062 9.992188 -64.933594 9.402344 -64.820312 C 4.335938 -63.855469 1.699219 -59.082031 2.078125 -53.898438 C 2.097656 -46.085938 0.917969 -38.164062 0.609375 -30.167969 C 0.535156 -27.34375 0.691406 -23.953125 0.429688 -20.847656 C 0.164062 -17.742188 1.242188 -14.652344 0.859375 -11.523438 C 0.898438 -10.675781 0.960938 -9.710938 1.140625 -8.769531 C 1.949219 -4.523438 2.066406 0.585938 7.671875 2.449219 C 8.609375 2.878906 9.503906 3.078125 10.328125 2.921875 C 13.15625 2.382812 14.410156 -3.230469 14.902344 -5.769531 C 14.808594 -5.628906 14.832031 -5.511719 14.832031 -5.511719 C 15.082031 -7.390625 15.621094 -9.691406 15.265625 -11.578125 C 15.355469 -13.671875 16.386719 -15.945312 15.960938 -18.1875 L 15.804688 -19.011719 C 15.511719 -20.542969 23.320312 -25.082031 22.257812 -24.882812 C 23.792969 -25.171875 28.460938 -23.742188 31.183594 -22.917969 C 36.207031 -21.550781 41.160156 -19.929688 46.328125 -19.082031 C 50.769531 -18.214844 57.222656 -16.390625 59.699219 -16.863281 C 60.996094 -17.109375 65.910156 -18.898438 65.460938 -21.257812 C 65.347656 -21.847656 65.117188 -22.414062 64.910156 -22.863281 Z M 23.609375 -46.027344 L 23.726562 -46.050781 L 23.394531 -45.863281 C 23.511719 -45.886719 23.511719 -45.886719 23.609375 -46.027344 C 21.996094 -44.867188 20.339844 -43.9375 18.566406 -42.992188 L 18.636719 -45.203125 C 18.539062 -45.0625 18.5625 -44.945312 18.5625 -44.945312 L 18.613281 -45.320312 L 18.636719 -45.203125 C 19.460938 -47.925781 19.910156 -50.699219 20.992188 -53.347656 C 22.707031 -57.828125 30.414062 -61.613281 32.777344 -62.675781 C 34.027344 -63.160156 35.257812 -63.757812 36.230469 -64.433594 C 37.484375 -57.832031 27.539062 -48.484375 24.886719 -47.003906 Z M 23.609375 -46.027344 "/></g></g></g><g fill="#a21f1f" fill-opacity="1"><g transform="translate(95.956714, 278.732784)"><g><path d="M 57.414062 -46.84375 C 55.59375 -51.261719 53.539062 -55.632812 50.042969 -59.246094 C 47.296875 -62.753906 42.9375 -64.488281 39.503906 -67.132812 C 35.503906 -70.15625 32.234375 -72.589844 27.636719 -71.714844 C 24.21875 -71.0625 18.34375 -67.257812 17.964844 -66.695312 C 16.398438 -65.296875 14.277344 -64.894531 12.304688 -63.054688 C 1.726562 -51.878906 -2.726562 -30.996094 -0.527344 -19.445312 C 2.371094 -4.238281 19.605469 2.253906 31.933594 0.273438 C 54.332031 -3.992188 62.480469 -27.285156 60.054688 -40.015625 C 58.332031 -42.011719 58.214844 -44.554688 57.414062 -46.84375 Z M 45.71875 -34.476562 C 45.644531 -31.65625 45.144531 -28.507812 43.804688 -25.929688 L 43.78125 -26.046875 C 40.351562 -19.042969 38.027344 -14.570312 28.359375 -12.726562 C 23.644531 -11.832031 14.886719 -11.628906 13.382812 -19.527344 C 11.027344 -31.90625 17.757812 -47.234375 23.875 -54.261719 C 24.160156 -54.683594 24.609375 -54.890625 25.433594 -55.046875 L 27.222656 -55.265625 C 28.519531 -55.511719 29.207031 -55.765625 30.390625 -56.601562 C 37.324219 -52.914062 43.554688 -49.703125 45.371094 -40.152344 C 45.753906 -38.148438 45.851562 -36.335938 45.71875 -34.476562 Z M 45.71875 -34.476562 "/></g></g></g><g fill="#a21f1f" fill-opacity="1"><g transform="translate(162.442655, 266.075501)"><g><path d="M 45.414062 -67.523438 L 44.976562 -68.539062 L 44.957031 -69.269531 L 42.886719 -71.808594 L 41.835938 -72.828125 L 40.8125 -73.734375 L 40.648438 -73.945312 L 39.355469 -74.3125 L 37.949219 -74.652344 C 37.949219 -74.652344 37.949219 -74.652344 37.925781 -74.773438 L 37.691406 -74.726562 C 37.667969 -74.84375 37.550781 -74.824219 37.527344 -74.941406 L 36.308594 -75.5625 L 34.5 -76.074219 L 32.386719 -76.28125 L 30.972656 -76.011719 L 24.6875 -73.71875 L 22.105469 -71.882812 C 22.128906 -71.765625 22.011719 -71.742188 22.011719 -71.742188 L 21.753906 -71.816406 L 20.472656 -70.839844 L 19.828125 -69.738281 L 18.285156 -68.222656 L 18.042969 -67.566406 L 17.378906 -67.195312 L 14.605469 -62.515625 L 13.203125 -60.902344 L 10.664062 -56.265625 L 10.542969 -55.632812 L 9.925781 -55.027344 L 6.976562 -49.335938 L 5.394531 -46.101562 C 4.433594 -44.085938 3.074219 -42.242188 2.457031 -39.070312 C 2.363281 -38.929688 2.242188 -38.90625 2.148438 -38.765625 L 1.136719 -36.375 L 1.058594 -35.503906 L 0.339844 -34.144531 L -2.03125 -24.777344 L -2.390625 -21.53125 L -2.832031 -19.371094 L -2.664062 -17.207031 L -2.722656 -16.21875 L -2.421875 -15.296875 L -2.625 -13.792969 L -1.75 -9.195312 L -0.582031 -5.628906 L 2.671875 -1.363281 L 5.40625 0.804688 L 9.15625 2.53125 L 13.265625 3.582031 L 18.300781 3.722656 L 27.335938 1.148438 L 30.484375 -0.917969 L 30.957031 -1.007812 L 34.277344 -3.472656 L 35.363281 -4.167969 L 36.09375 -6.75 L 35.5625 -7.625 L 35.804688 -8.28125 L 35.476562 -8.707031 L 35.285156 -8.429688 L 34.78125 -9.796875 L 34.289062 -9.824219 L 34.476562 -10.105469 L 34.035156 -10.511719 L 32.132812 -10.882812 L 25.304688 -8.238281 L 22.359375 -7.675781 L 20.308594 -7.53125 L 18.480469 -8.160156 L 17.289062 -9.277344 L 16.460938 -11.074219 L 15.941406 -13.785156 L 15.910156 -17.808594 L 16.996094 -25.589844 L 17.707031 -28.902344 L 18.578125 -31.386719 L 19.054688 -34.65625 L 19.820312 -35.777344 L 21.484375 -40.492188 L 22.441406 -44.460938 L 24.382812 -48.375 L 26.050781 -50.523438 C 27.050781 -51.691406 27.679688 -53.519531 28.796875 -54.710938 L 30.433594 -56.367188 L 31.742188 -57.835938 C 32.523438 -58.230469 33.164062 -58.71875 33.898438 -59.347656 L 34.585938 -59.597656 L 34.65625 -59.859375 C 35.21875 -59.476562 35.402344 -59.144531 35.402344 -59.144531 L 35.5 -59.285156 L 35.847656 -58.742188 L 36.667969 -58.285156 L 37.914062 -58.15625 L 38.738281 -58.3125 C 38.855469 -58.335938 39.445312 -58.449219 40.109375 -58.820312 L 40.34375 -58.863281 C 40.460938 -58.886719 40.578125 -58.910156 40.695312 -58.929688 L 42.269531 -58.375 L 42.8125 -58.722656 L 43.398438 -58.222656 L 46.171875 -60.339844 L 45.984375 -60.671875 L 46.199219 -60.832031 L 45.996094 -61.894531 L 47.039062 -62.824219 Z M 37.734375 -74.492188 L 37.660156 -74.234375 Z M 37.734375 -74.492188 "/></g></g></g><g fill="#a21f1f" fill-opacity="1"><g transform="translate(207.473907, 257.502661)"><g><path d="M 62.691406 -78.144531 L 61.597656 -79.402344 L 60.285156 -79.882812 L 58.730469 -79.710938 C 57.851562 -79.175781 57.074219 -78.785156 56.410156 -78.414062 C 55.179688 -77.8125 54.09375 -77.117188 53.972656 -77.09375 C 53.855469 -77.070312 53.738281 -77.050781 53.644531 -76.910156 L 52.207031 -76.757812 C 52.109375 -76.617188 51.898438 -76.453125 51.683594 -76.292969 C 51.234375 -76.085938 51.023438 -75.921875 50.902344 -75.898438 L 49.816406 -75.203125 C 49.953125 -75.109375 48.609375 -74.484375 48.488281 -74.460938 L 48.085938 -74.019531 C 47.351562 -73.390625 39.703125 -66.070312 34.316406 -61.015625 L 34.007812 -60.710938 C 33.886719 -60.6875 33.886719 -60.6875 33.910156 -60.570312 C 33.816406 -60.429688 33.835938 -60.3125 33.835938 -60.3125 C 30.542969 -57.730469 26.269531 -53.863281 25.847656 -54.148438 L 25.519531 -53.964844 C 25.304688 -53.800781 25.113281 -53.519531 24.78125 -53.335938 L 23.335938 -51.960938 L 23.316406 -52.691406 C 23.296875 -52.808594 23.25 -53.042969 23.34375 -53.183594 L 23.375 -53.679688 C 23.234375 -53.773438 23.402344 -54.171875 23.453125 -54.546875 L 23.597656 -55.066406 L 23.648438 -55.441406 C 23.785156 -57.300781 23.800781 -59.132812 24.042969 -59.792969 L 23.558594 -66.171875 L 23.105469 -67.917969 L 22.410156 -69.007812 L 20.726562 -70.152344 L 19.339844 -70.378906 L 16.390625 -69.816406 C 14.597656 -68.988281 12.492188 -67.851562 12.113281 -67.902344 L 11.378906 -67.273438 L 9.828125 -65.148438 L 8.773438 -62.992188 L 7.3125 -57.828125 C 7.382812 -57.472656 7.3125 -55.261719 7.027344 -54.84375 L 6.902344 -54.207031 C 7.4375 -53.332031 6.65625 -50.375 6.246094 -49.320312 L 6.125 -48.683594 C 6.214844 -48.210938 6.242188 -46.140625 5.769531 -46.050781 L 4.472656 -40.675781 L 4.421875 -40.296875 L 4.367188 -39.308594 C 4.359375 -38.699219 4.332031 -38.203125 4.355469 -38.085938 C 4.375 -37.96875 4 -35.453125 3.601562 -33.058594 L 2.921875 -28.285156 L 2.871094 -27.910156 C 2.984375 -27.320312 2.871094 -25.34375 2.777344 -25.203125 L 2.371094 -17.0625 C 2.191406 -12.875 2.273438 -4.097656 2.070312 -5.160156 L 2.515625 -2.1875 L 3.632812 -0.8125 C 3.65625 -0.695312 3.65625 -0.695312 3.773438 -0.71875 C 3.773438 -0.71875 3.914062 -0.621094 4.289062 -0.570312 L 4.332031 -0.335938 L 5.5 0.664062 C 5.523438 0.78125 5.878906 0.714844 5.78125 0.855469 L 7.886719 2.285156 L 9.65625 1.949219 L 10.839844 1.113281 L 12.371094 -1.746094 L 14.046875 -7.070312 C 15.0625 -12.640625 15.8125 -15.105469 16.335938 -15.570312 L 16.480469 -16.085938 L 16.785156 -18.34375 L 17.886719 -17.695312 L 18.445312 -17.316406 L 18.964844 -17.167969 L 19.480469 -17.023438 L 19.761719 -16.832031 C 19.78125 -16.714844 19.78125 -16.714844 19.902344 -16.738281 L 38.886719 -10.699219 L 39.023438 -10.605469 C 39.402344 -10.554688 39.660156 -10.480469 39.917969 -10.410156 C 40.292969 -10.359375 40.691406 -10.191406 40.808594 -10.210938 C 40.949219 -10.117188 43.25 -9.578125 45.503906 -8.664062 L 49.960938 -7.066406 L 50.21875 -6.996094 C 51.582031 -6.886719 53.949219 -5.996094 55.898438 -5.390625 L 57.238281 -5.398438 C 57.898438 -5.160156 57.476562 -5.445312 58.605469 -5.292969 L 60.152344 -4.855469 C 60.484375 -5.039062 61.945312 -5.074219 61.964844 -4.957031 L 63.835938 -6.046875 C 63.929688 -6.183594 64.078125 -6.703125 64.835938 -7.210938 L 65.234375 -9.609375 L 64.886719 -10.152344 L 64.042969 -10.726562 C 63.925781 -10.703125 63.785156 -10.800781 63.601562 -11.128906 L 63.296875 -11.441406 L 62.996094 -11.75 L 62.433594 -12.128906 L 62.4375 -12.742188 L 62.371094 -13.09375 L 61.933594 -14.113281 L 59.160156 -17.125 L 55.652344 -19.511719 L 54.996094 -19.753906 C 54.472656 -19.289062 53.007812 -21.207031 52.988281 -21.324219 L 40.222656 -28.058594 L 36.917969 -29.382812 L 28.472656 -32.660156 L 28.214844 -32.734375 C 28.121094 -32.59375 26.410156 -33.246094 23.878906 -34.351562 L 24.113281 -34.394531 C 24.230469 -34.417969 24.230469 -34.417969 24.207031 -34.535156 L 24.515625 -34.839844 C 25.230469 -35.585938 26.847656 -37.359375 27.671875 -37.515625 L 29.355469 -38.9375 L 29.472656 -38.960938 C 29.6875 -39.121094 29.878906 -39.402344 30.1875 -39.707031 L 31.113281 -40.617188 L 32.152344 -40.933594 L 34.402344 -42.585938 L 34.710938 -42.886719 L 35.136719 -43.214844 C 35.257812 -43.234375 36.132812 -43.769531 36.890625 -44.28125 L 38.40625 -45.300781 L 45.648438 -52.175781 L 45.742188 -52.316406 L 52.09375 -59.390625 L 55.089844 -62.890625 L 56.742188 -65.773438 C 58.128906 -68.113281 58.605469 -71.378906 60.730469 -72.394531 L 62.808594 -75.601562 L 63.035156 -76.988281 Z M 62.691406 -78.144531 "/></g></g></g><g fill="#a21f1f" fill-opacity="1"><g transform="translate(274.902921, 244.66584)"><g><path d="M 45.597656 -69.757812 C 45.300781 -70.679688 44.863281 -71.695312 44.425781 -72.710938 L 44.105469 -73.75 L 43.335938 -74.582031 C 40.464844 -76.84375 37.679688 -78.632812 34.730469 -78.074219 C 34.378906 -78.003906 34.140625 -77.960938 34.046875 -77.820312 C 33.789062 -77.894531 33.554688 -77.847656 33.199219 -77.78125 C 32.847656 -77.714844 32.492188 -77.648438 32.277344 -77.484375 C 32.136719 -77.578125 31.902344 -77.535156 31.667969 -77.488281 L 31.3125 -77.421875 C 23.890625 -74.054688 20.628906 -75.144531 11.8125 -65.648438 C 7.65625 -61.800781 7.011719 -60.703125 6.691406 -59.175781 C 6.640625 -58.800781 6.757812 -58.820312 6.472656 -58.402344 L 6.371094 -57.648438 C 5.703125 -56.667969 4.34375 -54.820312 4.351562 -52.867188 C 3.511719 -46.355469 3.378906 -41.929688 3.328125 -41.554688 L 3.484375 -40.730469 L 3.507812 -40.613281 C 3.648438 -40.515625 3.667969 -40.398438 3.667969 -40.398438 C 3.640625 -39.90625 3.613281 -39.410156 3.652344 -38.5625 L 3.808594 -37.738281 C 7.523438 -29.773438 8.691406 -28.773438 14.660156 -25.023438 L 15.058594 -24.855469 C 19.789062 -22.457031 23.757812 -21.503906 25.066406 -20.40625 C 25.429688 -19.132812 27.238281 -18.621094 27.121094 -18.601562 L 28.898438 -17.59375 C 30.308594 -17.253906 32.042969 -16.484375 32.582031 -16.21875 L 32.980469 -16.050781 C 32.957031 -16.167969 32.957031 -16.167969 33.074219 -16.191406 C 33.664062 -16.304688 35.742188 -14.378906 35.859375 -14.402344 L 35.882812 -14.28125 C 34.789062 -12.976562 34.078125 -10.273438 32.613281 -9.628906 C 30.257812 -9.179688 28.539062 -9.21875 27.367188 -9.605469 L 26.730469 -9.730469 C 22.214844 -9.726562 20.191406 -10.074219 19.0625 -10.226562 L 17.9375 -10.378906 C 16.519531 -10.109375 14.882812 -11.019531 12.171875 -10.5 C 5.570312 -9.246094 5.582031 -5.335938 4.632812 -1.980469 L 4.570312 -0.382812 L 6.0625 1.042969 C 6.414062 0.976562 6.953125 1.242188 7.492188 1.503906 L 8.363281 1.582031 L 8.8125 1.375 C 10.109375 1.128906 11.0625 2.292969 11.160156 2.152344 L 11.699219 2.414062 C 12.117188 2.703125 14.941406 2.773438 22.019531 3.382812 L 22.375 3.3125 C 23.40625 3.605469 26.089844 3.582031 28.398438 3.511719 L 29.007812 3.515625 L 28.871094 3.421875 L 29.128906 3.496094 C 30.375 3.625 31.691406 3.496094 32.988281 3.246094 C 38.292969 2.238281 47.425781 -0.476562 50.660156 -4.027344 L 53.421875 -10.046875 C 53.890625 -12.089844 53.671875 -13.882812 53.335938 -15.652344 C 51.605469 -24.726562 45.75 -27.886719 43.085938 -29.703125 L 42.6875 -29.871094 C 29.867188 -35.613281 27.261719 -33.894531 21.355469 -39.246094 C 20.726562 -39.980469 19.539062 -41.097656 19.449219 -41.570312 L 19.425781 -41.6875 C 19.195312 -42.253906 19.085938 -42.84375 18.996094 -43.316406 C 18.277344 -47.089844 20.269531 -51.378906 20.246094 -51.496094 C 20 -52.792969 23.699219 -58.382812 24.644531 -58.5625 L 24.855469 -58.722656 C 25.523438 -59.707031 28.128906 -61.425781 29.425781 -61.671875 C 30.273438 -61.710938 30.746094 -61.800781 31.214844 -61.890625 C 31.804688 -62.003906 32.277344 -62.09375 32.609375 -62.277344 L 38.34375 -61.660156 L 39.332031 -61.601562 C 40.277344 -61.78125 42.230469 -61.789062 42.074219 -62.613281 C 42.214844 -62.515625 42.566406 -62.585938 43.15625 -62.695312 C 45.394531 -63.125 46.621094 -65.675781 46.195312 -67.917969 C 46.105469 -68.390625 45.875 -68.957031 45.597656 -69.757812 Z M 45.597656 -69.757812 "/></g></g></g><g fill="#a21f1f" fill-opacity="1"><g transform="translate(331.368819, 233.916125)"><g><path d="M 25.851562 -87.5 C 23.65625 -89.402344 20.773438 -90.441406 18.769531 -90.058594 C 16.765625 -89.675781 13.335938 -87.804688 12.90625 -84.910156 L 12.308594 -81.011719 C 10.039062 -69.828125 7.347656 -58.933594 7.644531 -47.753906 C 7.828125 -42.289062 7.4375 -37.941406 8.492188 -32.398438 C 9.253906 -28.390625 10.292969 -23.582031 14.652344 -24.410156 C 20.671875 -26.167969 17.101562 -34.648438 18.242188 -38.285156 C 19.15625 -40.539062 20.414062 -44.199219 20.167969 -45.496094 L 20.011719 -46.320312 C 19.335938 -49.855469 23.363281 -60.152344 23.25 -60.738281 L 23.226562 -60.859375 C 23.109375 -60.835938 23.109375 -60.835938 23.132812 -60.71875 L 24.160156 -62.378906 L 25.519531 -69.355469 C 26.414062 -74.289062 27.265625 -80.070312 26.65625 -85.207031 C 26.519531 -85.914062 26.246094 -86.71875 25.851562 -87.5 Z M 24.136719 -11.800781 C 23.53125 -14.984375 19.585938 -15.820312 19.121094 -16.34375 C 17.722656 -17.910156 14.203125 -19.074219 13.144531 -18.871094 C 12.316406 -18.714844 12.476562 -17.886719 11.886719 -17.777344 C 10.824219 -17.574219 9.304688 -18.507812 8.359375 -18.328125 C 6.59375 -17.988281 5.433594 -15.082031 4.609375 -14.925781 C 4.042969 -14.695312 3.640625 -14.253906 3.441406 -13.359375 C 3.390625 -12.984375 3.339844 -12.605469 3.3125 -12.113281 L 3.402344 -11.640625 C 3.515625 -11.050781 2.710938 -8.210938 2.890625 -7.269531 C 3.40625 -4.558594 6.117188 -5.074219 6.511719 -4.292969 L 7.886719 -2.84375 L 7.683594 -3.90625 C 10.261719 0 15.476562 1.085938 19.25 0.367188 C 21.132812 0.0078125 21.667969 -1.683594 22.234375 -1.910156 C 25.238281 -3.460938 25.84375 -5.410156 25.375 -7.882812 C 25.125 -9.179688 24.171875 -10.34375 24.058594 -10.933594 Z M 23.890625 -10.535156 L 24.054688 -10.320312 C 23.957031 -10.179688 24.003906 -9.945312 23.671875 -9.757812 Z M 23.890625 -10.535156 "/></g></g></g><g fill="#a21f1f" fill-opacity="1"><g transform="translate(370.613496, 226.444907)"><g/></g></g><g fill="#000000" fill-opacity="1"><g transform="translate(69.46448, 312.373045)"><g><path d="M 16.8125 -11.140625 L 13.3125 0 L 10.84375 0 L 8.484375 -8 L 6.109375 0 L 3.640625 0 L 0.140625 -11.140625 L 2.4375 -11.140625 L 4.90625 -2.578125 L 7.359375 -11.140625 L 9.6875 -11.140625 L 12.125 -2.578125 L 14.609375 -11.140625 Z M 16.8125 -11.140625 "/></g></g></g><g fill="#000000" fill-opacity="1"><g transform="translate(86.420412, 312.373045)"><g><path d="M 11.15625 -11.140625 L 11.15625 0 L 9.046875 0 L 9.046875 -4.890625 L 3.765625 -4.890625 L 3.765625 0 L 1.640625 0 L 1.640625 -11.140625 L 3.765625 -11.140625 L 3.765625 -6.765625 L 9.046875 -6.765625 L 9.046875 -11.140625 Z M 11.15625 -11.140625 "/></g></g></g><g fill="#000000" fill-opacity="1"><g transform="translate(99.217343, 312.373045)"><g><path d="M 8.25 -2.53125 L 3.5 -2.53125 L 2.578125 0 L 0.46875 0 L 4.6875 -11.140625 L 7.15625 -11.140625 L 11.375 0 L 9.1875 0 Z M 7.59375 -4.3125 L 5.890625 -9.0625 L 4.15625 -4.3125 Z M 7.59375 -4.3125 "/></g></g></g><g fill="#000000" fill-opacity="1"><g transform="translate(111.054504, 312.373045)"><g><path d="M 4.0625 -9.203125 L 0.890625 -9.203125 L 0.890625 -11.140625 L 9.34375 -11.140625 L 9.34375 -9.203125 L 6.171875 -9.203125 L 6.171875 0 L 4.0625 0 Z M 4.0625 -9.203125 "/></g></g></g><g fill="#000000" fill-opacity="1"><g transform="translate(121.292044, 312.373045)"><g/></g></g><g fill="#000000" fill-opacity="1"><g transform="translate(125.770964, 312.373045)"><g><path d="M 5.765625 -11.140625 C 6.898438 -11.140625 7.878906 -10.910156 8.703125 -10.453125 C 9.523438 -10.003906 10.148438 -9.359375 10.578125 -8.515625 C 11.003906 -7.679688 11.21875 -6.695312 11.21875 -5.5625 C 11.21875 -4.4375 11.003906 -3.453125 10.578125 -2.609375 C 10.148438 -1.773438 9.523438 -1.128906 8.703125 -0.671875 C 7.878906 -0.222656 6.898438 0 5.765625 0 L 1.640625 0 L 1.640625 -11.140625 Z M 5.765625 -1.875 C 6.773438 -1.875 7.5625 -2.1875 8.125 -2.8125 C 8.695312 -3.445312 8.984375 -4.363281 8.984375 -5.5625 C 8.984375 -6.769531 8.695312 -7.6875 8.125 -8.3125 C 7.5625 -8.945312 6.773438 -9.265625 5.765625 -9.265625 L 3.765625 -9.265625 L 3.765625 -1.875 Z M 5.765625 -1.875 "/></g></g></g><g fill="#000000" fill-opacity="1"><g transform="translate(138.247965, 312.373045)"><g><path d="M 6.71875 0.1875 C 5.582031 0.1875 4.601562 -0.046875 3.78125 -0.515625 C 2.957031 -0.984375 2.332031 -1.648438 1.90625 -2.515625 C 1.476562 -3.378906 1.265625 -4.394531 1.265625 -5.5625 C 1.265625 -6.738281 1.476562 -7.757812 1.90625 -8.625 C 2.332031 -9.488281 2.957031 -10.15625 3.78125 -10.625 C 4.601562 -11.09375 5.582031 -11.328125 6.71875 -11.328125 C 7.863281 -11.328125 8.84375 -11.09375 9.65625 -10.625 C 10.476562 -10.15625 11.101562 -9.488281 11.53125 -8.625 C 11.957031 -7.757812 12.171875 -6.738281 12.171875 -5.5625 C 12.171875 -4.394531 11.957031 -3.378906 11.53125 -2.515625 C 11.101562 -1.648438 10.476562 -0.984375 9.65625 -0.515625 C 8.84375 -0.046875 7.863281 0.1875 6.71875 0.1875 Z M 6.71875 -1.765625 C 7.71875 -1.765625 8.503906 -2.09375 9.078125 -2.75 C 9.660156 -3.40625 9.953125 -4.34375 9.953125 -5.5625 C 9.953125 -6.789062 9.660156 -7.734375 9.078125 -8.390625 C 8.503906 -9.046875 7.71875 -9.375 6.71875 -9.375 C 5.71875 -9.375 4.925781 -9.046875 4.34375 -8.390625 C 3.769531 -7.734375 3.484375 -6.789062 3.484375 -5.5625 C 3.484375 -4.34375 3.769531 -3.40625 4.34375 -2.75 C 4.925781 -2.09375 5.71875 -1.765625 6.71875 -1.765625 Z M 6.71875 -1.765625 "/></g></g></g><g fill="#000000" fill-opacity="1"><g transform="translate(151.684735, 312.373045)"><g/></g></g><g fill="#000000" fill-opacity="1"><g transform="translate(156.163655, 312.373045)"><g><path d="M 10.390625 -11.140625 L 6.34375 -3.84375 L 6.34375 0 L 4.21875 0 L 4.21875 -3.84375 L 0.171875 -11.140625 L 2.4375 -11.140625 L 5.296875 -5.734375 L 8.203125 -11.140625 Z M 10.390625 -11.140625 "/></g></g></g><g fill="#000000" fill-opacity="1"><g transform="translate(166.721115, 312.373045)"><g><path d="M 6.71875 0.1875 C 5.582031 0.1875 4.601562 -0.046875 3.78125 -0.515625 C 2.957031 -0.984375 2.332031 -1.648438 1.90625 -2.515625 C 1.476562 -3.378906 1.265625 -4.394531 1.265625 -5.5625 C 1.265625 -6.738281 1.476562 -7.757812 1.90625 -8.625 C 2.332031 -9.488281 2.957031 -10.15625 3.78125 -10.625 C 4.601562 -11.09375 5.582031 -11.328125 6.71875 -11.328125 C 7.863281 -11.328125 8.84375 -11.09375 9.65625 -10.625 C 10.476562 -10.15625 11.101562 -9.488281 11.53125 -8.625 C 11.957031 -7.757812 12.171875 -6.738281 12.171875 -5.5625 C 12.171875 -4.394531 11.957031 -3.378906 11.53125 -2.515625 C 11.101562 -1.648438 10.476562 -0.984375 9.65625 -0.515625 C 8.84375 -0.046875 7.863281 0.1875 6.71875 0.1875 Z M 6.71875 -1.765625 C 7.71875 -1.765625 8.503906 -2.09375 9.078125 -2.75 C 9.660156 -3.40625 9.953125 -4.34375 9.953125 -5.5625 C 9.953125 -6.789062 9.660156 -7.734375 9.078125 -8.390625 C 8.503906 -9.046875 7.71875 -9.375 6.71875 -9.375 C 5.71875 -9.375 4.925781 -9.046875 4.34375 -8.390625 C 3.769531 -7.734375 3.484375 -6.789062 3.484375 -5.5625 C 3.484375 -4.34375 3.769531 -3.40625 4.34375 -2.75 C 4.925781 -2.09375 5.71875 -1.765625 6.71875 -1.765625 Z M 6.71875 -1.765625 "/></g></g></g><g fill="#000000" fill-opacity="1"><g transform="translate(180.157885, 312.373045)"><g><path d="M 6.234375 0.1875 C 4.753906 0.1875 3.59375 -0.238281 2.75 -1.09375 C 1.90625 -1.945312 1.484375 -3.117188 1.484375 -4.609375 L 1.484375 -11.140625 L 3.59375 -11.140625 L 3.59375 -4.65625 C 3.59375 -3.632812 3.820312 -2.878906 4.28125 -2.390625 C 4.738281 -1.898438 5.390625 -1.65625 6.234375 -1.65625 C 7.085938 -1.65625 7.738281 -1.90625 8.1875 -2.40625 C 8.644531 -2.90625 8.875 -3.65625 8.875 -4.65625 L 8.875 -11.140625 L 10.984375 -11.140625 L 10.984375 -4.609375 C 10.984375 -3.117188 10.5625 -1.945312 9.71875 -1.09375 C 8.882812 -0.238281 7.722656 0.1875 6.234375 0.1875 Z M 6.234375 0.1875 "/></g></g></g><g fill="#000000" fill-opacity="1"><g transform="translate(192.634885, 312.373045)"><g/></g></g><g fill="#000000" fill-opacity="1"><g transform="translate(197.113805, 312.373045)"><g><path d="M 1.640625 -11.140625 L 3.765625 -11.140625 L 3.765625 -1.859375 L 8.453125 -1.859375 L 8.453125 0 L 1.640625 0 Z M 1.640625 -11.140625 "/></g></g></g><g fill="#000000" fill-opacity="1"><g transform="translate(206.391575, 312.373045)"><g><path d="M 6.71875 0.1875 C 5.582031 0.1875 4.601562 -0.046875 3.78125 -0.515625 C 2.957031 -0.984375 2.332031 -1.648438 1.90625 -2.515625 C 1.476562 -3.378906 1.265625 -4.394531 1.265625 -5.5625 C 1.265625 -6.738281 1.476562 -7.757812 1.90625 -8.625 C 2.332031 -9.488281 2.957031 -10.15625 3.78125 -10.625 C 4.601562 -11.09375 5.582031 -11.328125 6.71875 -11.328125 C 7.863281 -11.328125 8.84375 -11.09375 9.65625 -10.625 C 10.476562 -10.15625 11.101562 -9.488281 11.53125 -8.625 C 11.957031 -7.757812 12.171875 -6.738281 12.171875 -5.5625 C 12.171875 -4.394531 11.957031 -3.378906 11.53125 -2.515625 C 11.101562 -1.648438 10.476562 -0.984375 9.65625 -0.515625 C 8.84375 -0.046875 7.863281 0.1875 6.71875 0.1875 Z M 6.71875 -1.765625 C 7.71875 -1.765625 8.503906 -2.09375 9.078125 -2.75 C 9.660156 -3.40625 9.953125 -4.34375 9.953125 -5.5625 C 9.953125 -6.789062 9.660156 -7.734375 9.078125 -8.390625 C 8.503906 -9.046875 7.71875 -9.375 6.71875 -9.375 C 5.71875 -9.375 4.925781 -9.046875 4.34375 -8.390625 C 3.769531 -7.734375 3.484375 -6.789062 3.484375 -5.5625 C 3.484375 -4.34375 3.769531 -3.40625 4.34375 -2.75 C 4.925781 -2.09375 5.71875 -1.765625 6.71875 -1.765625 Z M 6.71875 -1.765625 "/></g></g></g><g fill="#000000" fill-opacity="1"><g transform="translate(219.828346, 312.373045)"><g><path d="M 10.890625 -11.140625 L 6.828125 0 L 4.375 0 L 0.296875 -11.140625 L 2.59375 -11.140625 L 5.640625 -2.234375 L 8.6875 -11.140625 Z M 10.890625 -11.140625 "/></g></g></g><g fill="#000000" fill-opacity="1"><g transform="translate(231.025657, 312.373045)"><g><path d="M 3.765625 -9.28125 L 3.765625 -6.5 L 8.5625 -6.5 L 8.5625 -4.75 L 3.765625 -4.75 L 3.765625 -1.859375 L 8.90625 -1.859375 L 8.90625 0 L 1.640625 0 L 1.640625 -11.140625 L 8.90625 -11.140625 L 8.90625 -9.28125 Z M 3.765625 -9.28125 "/></g></g></g><g fill="#000000" fill-opacity="1"><g transform="translate(60.1012, 334.123044)"><g><path d="M 8.25 -2.53125 L 3.5 -2.53125 L 2.578125 0 L 0.46875 0 L 4.6875 -11.140625 L 7.15625 -11.140625 L 11.375 0 L 9.1875 0 Z M 7.59375 -4.3125 L 5.890625 -9.0625 L 4.15625 -4.3125 Z M 7.59375 -4.3125 "/></g></g></g><g fill="#000000" fill-opacity="1"><g transform="translate(71.938361, 334.123044)"><g><path d="M 8.296875 -5.796875 C 8.878906 -5.546875 9.316406 -5.195312 9.609375 -4.75 C 9.910156 -4.300781 10.0625 -3.757812 10.0625 -3.125 C 10.0625 -2.101562 9.691406 -1.328125 8.953125 -0.796875 C 8.222656 -0.265625 7.160156 0 5.765625 0 L 1.640625 0 L 1.640625 -11.140625 L 5.953125 -11.140625 C 7.160156 -11.140625 8.085938 -10.882812 8.734375 -10.375 C 9.390625 -9.863281 9.71875 -9.140625 9.71875 -8.203125 C 9.71875 -7.085938 9.242188 -6.285156 8.296875 -5.796875 Z M 3.765625 -9.28125 L 3.765625 -6.625 L 5.765625 -6.625 C 6.335938 -6.625 6.765625 -6.738281 7.046875 -6.96875 C 7.335938 -7.207031 7.484375 -7.550781 7.484375 -8 C 7.484375 -8.488281 7.359375 -8.820312 7.109375 -9 C 6.859375 -9.1875 6.414062 -9.28125 5.78125 -9.28125 Z M 5.765625 -1.875 C 6.515625 -1.875 7.046875 -1.984375 7.359375 -2.203125 C 7.679688 -2.421875 7.84375 -2.796875 7.84375 -3.328125 C 7.84375 -3.828125 7.671875 -4.191406 7.328125 -4.421875 C 6.992188 -4.660156 6.476562 -4.78125 5.78125 -4.78125 L 3.765625 -4.78125 L 3.765625 -1.875 Z M 5.765625 -1.875 "/></g></g></g><g fill="#000000" fill-opacity="1"><g transform="translate(83.135671, 334.123044)"><g><path d="M 6.71875 0.1875 C 5.582031 0.1875 4.601562 -0.046875 3.78125 -0.515625 C 2.957031 -0.984375 2.332031 -1.648438 1.90625 -2.515625 C 1.476562 -3.378906 1.265625 -4.394531 1.265625 -5.5625 C 1.265625 -6.738281 1.476562 -7.757812 1.90625 -8.625 C 2.332031 -9.488281 2.957031 -10.15625 3.78125 -10.625 C 4.601562 -11.09375 5.582031 -11.328125 6.71875 -11.328125 C 7.863281 -11.328125 8.84375 -11.09375 9.65625 -10.625 C 10.476562 -10.15625 11.101562 -9.488281 11.53125 -8.625 C 11.957031 -7.757812 12.171875 -6.738281 12.171875 -5.5625 C 12.171875 -4.394531 11.957031 -3.378906 11.53125 -2.515625 C 11.101562 -1.648438 10.476562 -0.984375 9.65625 -0.515625 C 8.84375 -0.046875 7.863281 0.1875 6.71875 0.1875 Z M 6.71875 -1.765625 C 7.71875 -1.765625 8.503906 -2.09375 9.078125 -2.75 C 9.660156 -3.40625 9.953125 -4.34375 9.953125 -5.5625 C 9.953125 -6.789062 9.660156 -7.734375 9.078125 -8.390625 C 8.503906 -9.046875 7.71875 -9.375 6.71875 -9.375 C 5.71875 -9.375 4.925781 -9.046875 4.34375 -8.390625 C 3.769531 -7.734375 3.484375 -6.789062 3.484375 -5.5625 C 3.484375 -4.34375 3.769531 -3.40625 4.34375 -2.75 C 4.925781 -2.09375 5.71875 -1.765625 6.71875 -1.765625 Z M 6.71875 -1.765625 "/></g></g></g><g fill="#000000" fill-opacity="1"><g transform="translate(96.572442, 334.123044)"><g><path d="M 6.234375 0.1875 C 4.753906 0.1875 3.59375 -0.238281 2.75 -1.09375 C 1.90625 -1.945312 1.484375 -3.117188 1.484375 -4.609375 L 1.484375 -11.140625 L 3.59375 -11.140625 L 3.59375 -4.65625 C 3.59375 -3.632812 3.820312 -2.878906 4.28125 -2.390625 C 4.738281 -1.898438 5.390625 -1.65625 6.234375 -1.65625 C 7.085938 -1.65625 7.738281 -1.90625 8.1875 -2.40625 C 8.644531 -2.90625 8.875 -3.65625 8.875 -4.65625 L 8.875 -11.140625 L 10.984375 -11.140625 L 10.984375 -4.609375 C 10.984375 -3.117188 10.5625 -1.945312 9.71875 -1.09375 C 8.882812 -0.238281 7.722656 0.1875 6.234375 0.1875 Z M 6.234375 0.1875 "/></g></g></g><g fill="#000000" fill-opacity="1"><g transform="translate(109.049442, 334.123044)"><g><path d="M 4.0625 -9.203125 L 0.890625 -9.203125 L 0.890625 -11.140625 L 9.34375 -11.140625 L 9.34375 -9.203125 L 6.171875 -9.203125 L 6.171875 0 L 4.0625 0 Z M 4.0625 -9.203125 "/></g></g></g><g fill="#000000" fill-opacity="1"><g transform="translate(119.286983, 334.123044)"><g/></g></g><g fill="#000000" fill-opacity="1"><g transform="translate(123.765902, 334.123044)"><g><path d="M 1.640625 -11.140625 L 3.765625 -11.140625 L 3.765625 -1.859375 L 8.453125 -1.859375 L 8.453125 0 L 1.640625 0 Z M 1.640625 -11.140625 "/></g></g></g><g fill="#000000" fill-opacity="1"><g transform="translate(133.043673, 334.123044)"><g><path d="M 3.765625 -9.28125 L 3.765625 -6.5 L 8.5625 -6.5 L 8.5625 -4.75 L 3.765625 -4.75 L 3.765625 -1.859375 L 8.90625 -1.859375 L 8.90625 0 L 1.640625 0 L 1.640625 -11.140625 L 8.90625 -11.140625 L 8.90625 -9.28125 Z M 3.765625 -9.28125 "/></g></g></g><g fill="#000000" fill-opacity="1"><g transform="translate(143.281213, 334.123044)"><g><path d="M 1.265625 -5.515625 C 1.265625 -6.703125 1.488281 -7.734375 1.9375 -8.609375 C 2.394531 -9.484375 3.050781 -10.15625 3.90625 -10.625 C 4.769531 -11.09375 5.785156 -11.328125 6.953125 -11.328125 C 7.628906 -11.328125 8.234375 -11.253906 8.765625 -11.109375 C 9.296875 -10.972656 9.820312 -10.785156 10.34375 -10.546875 L 10.34375 -8.578125 L 10.265625 -8.578125 C 9.898438 -8.796875 9.441406 -8.984375 8.890625 -9.140625 C 8.335938 -9.296875 7.75 -9.375 7.125 -9.375 C 4.695312 -9.375 3.484375 -8.097656 3.484375 -5.546875 C 3.484375 -4.304688 3.769531 -3.363281 4.34375 -2.71875 C 4.925781 -2.082031 5.769531 -1.765625 6.875 -1.765625 C 7.769531 -1.765625 8.4375 -1.945312 8.875 -2.3125 L 8.875 -4 L 6.765625 -4 L 6.765625 -5.765625 L 10.984375 -5.765625 L 10.984375 -1.203125 C 10.140625 -0.679688 9.40625 -0.316406 8.78125 -0.109375 C 8.164062 0.0859375 7.507812 0.1875 6.8125 0.1875 C 5.644531 0.1875 4.644531 -0.046875 3.8125 -0.515625 C 2.976562 -0.984375 2.34375 -1.644531 1.90625 -2.5 C 1.476562 -3.363281 1.265625 -4.367188 1.265625 -5.515625 Z M 1.265625 -5.515625 "/></g></g></g><g fill="#000000" fill-opacity="1"><g transform="translate(155.758214, 334.123044)"><g><path d="M 8.25 -2.53125 L 3.5 -2.53125 L 2.578125 0 L 0.46875 0 L 4.6875 -11.140625 L 7.15625 -11.140625 L 11.375 0 L 9.1875 0 Z M 7.59375 -4.3125 L 5.890625 -9.0625 L 4.15625 -4.3125 Z M 7.59375 -4.3125 "/></g></g></g><g fill="#000000" fill-opacity="1"><g transform="translate(167.595375, 334.123044)"><g><path d="M 7.140625 0.1875 C 5.910156 0.1875 4.851562 -0.046875 3.96875 -0.515625 C 3.09375 -0.984375 2.421875 -1.648438 1.953125 -2.515625 C 1.492188 -3.390625 1.265625 -4.40625 1.265625 -5.5625 C 1.265625 -6.726562 1.5 -7.742188 1.96875 -8.609375 C 2.4375 -9.484375 3.117188 -10.15625 4.015625 -10.625 C 4.910156 -11.09375 5.984375 -11.328125 7.234375 -11.328125 C 7.753906 -11.328125 8.265625 -11.273438 8.765625 -11.171875 C 9.273438 -11.078125 9.734375 -10.925781 10.140625 -10.71875 L 10.140625 -8.765625 L 10.078125 -8.765625 C 9.671875 -9.003906 9.226562 -9.179688 8.75 -9.296875 C 8.28125 -9.410156 7.832031 -9.46875 7.40625 -9.46875 C 6.1875 -9.46875 5.226562 -9.128906 4.53125 -8.453125 C 3.832031 -7.785156 3.484375 -6.820312 3.484375 -5.5625 C 3.484375 -4.320312 3.820312 -3.363281 4.5 -2.6875 C 5.1875 -2.019531 6.125 -1.6875 7.3125 -1.6875 C 7.769531 -1.6875 8.234375 -1.753906 8.703125 -1.890625 C 9.179688 -2.035156 9.640625 -2.242188 10.078125 -2.515625 L 10.140625 -2.515625 L 10.140625 -0.546875 C 9.285156 -0.0546875 8.285156 0.1875 7.140625 0.1875 Z M 7.140625 0.1875 "/></g></g></g><g fill="#000000" fill-opacity="1"><g transform="translate(179.112605, 334.123044)"><g><path d="M 10.390625 -11.140625 L 6.34375 -3.84375 L 6.34375 0 L 4.21875 0 L 4.21875 -3.84375 L 0.171875 -11.140625 L 2.4375 -11.140625 L 5.296875 -5.734375 L 8.203125 -11.140625 Z M 10.390625 -11.140625 "/></g></g></g><g fill="#000000" fill-opacity="1"><g transform="translate(189.670065, 334.123044)"><g/></g></g><g fill="#000000" fill-opacity="1"><g transform="translate(194.148985, 334.123044)"><g><path d="M 7.140625 0.1875 C 5.910156 0.1875 4.851562 -0.046875 3.96875 -0.515625 C 3.09375 -0.984375 2.421875 -1.648438 1.953125 -2.515625 C 1.492188 -3.390625 1.265625 -4.40625 1.265625 -5.5625 C 1.265625 -6.726562 1.5 -7.742188 1.96875 -8.609375 C 2.4375 -9.484375 3.117188 -10.15625 4.015625 -10.625 C 4.910156 -11.09375 5.984375 -11.328125 7.234375 -11.328125 C 7.753906 -11.328125 8.265625 -11.273438 8.765625 -11.171875 C 9.273438 -11.078125 9.734375 -10.925781 10.140625 -10.71875 L 10.140625 -8.765625 L 10.078125 -8.765625 C 9.671875 -9.003906 9.226562 -9.179688 8.75 -9.296875 C 8.28125 -9.410156 7.832031 -9.46875 7.40625 -9.46875 C 6.1875 -9.46875 5.226562 -9.128906 4.53125 -8.453125 C 3.832031 -7.785156 3.484375 -6.820312 3.484375 -5.5625 C 3.484375 -4.320312 3.820312 -3.363281 4.5 -2.6875 C 5.1875 -2.019531 6.125 -1.6875 7.3125 -1.6875 C 7.769531 -1.6875 8.234375 -1.753906 8.703125 -1.890625 C 9.179688 -2.035156 9.640625 -2.242188 10.078125 -2.515625 L 10.140625 -2.515625 L 10.140625 -0.546875 C 9.285156 -0.0546875 8.285156 0.1875 7.140625 0.1875 Z M 7.140625 0.1875 "/></g></g></g><g fill="#000000" fill-opacity="1"><g transform="translate(205.666215, 334.123044)"><g><path d="M 6.71875 0.1875 C 5.582031 0.1875 4.601562 -0.046875 3.78125 -0.515625 C 2.957031 -0.984375 2.332031 -1.648438 1.90625 -2.515625 C 1.476562 -3.378906 1.265625 -4.394531 1.265625 -5.5625 C 1.265625 -6.738281 1.476562 -7.757812 1.90625 -8.625 C 2.332031 -9.488281 2.957031 -10.15625 3.78125 -10.625 C 4.601562 -11.09375 5.582031 -11.328125 6.71875 -11.328125 C 7.863281 -11.328125 8.84375 -11.09375 9.65625 -10.625 C 10.476562 -10.15625 11.101562 -9.488281 11.53125 -8.625 C 11.957031 -7.757812 12.171875 -6.738281 12.171875 -5.5625 C 12.171875 -4.394531 11.957031 -3.378906 11.53125 -2.515625 C 11.101562 -1.648438 10.476562 -0.984375 9.65625 -0.515625 C 8.84375 -0.046875 7.863281 0.1875 6.71875 0.1875 Z M 6.71875 -1.765625 C 7.71875 -1.765625 8.503906 -2.09375 9.078125 -2.75 C 9.660156 -3.40625 9.953125 -4.34375 9.953125 -5.5625 C 9.953125 -6.789062 9.660156 -7.734375 9.078125 -8.390625 C 8.503906 -9.046875 7.71875 -9.375 6.71875 -9.375 C 5.71875 -9.375 4.925781 -9.046875 4.34375 -8.390625 C 3.769531 -7.734375 3.484375 -6.789062 3.484375 -5.5625 C 3.484375 -4.34375 3.769531 -3.40625 4.34375 -2.75 C 4.925781 -2.09375 5.71875 -1.765625 6.71875 -1.765625 Z M 6.71875 -1.765625 "/></g></g></g><g fill="#000000" fill-opacity="1"><g transform="translate(219.102986, 334.123044)"><g><path d="M 5.765625 -11.140625 C 6.898438 -11.140625 7.878906 -10.910156 8.703125 -10.453125 C 9.523438 -10.003906 10.148438 -9.359375 10.578125 -8.515625 C 11.003906 -7.679688 11.21875 -6.695312 11.21875 -5.5625 C 11.21875 -4.4375 11.003906 -3.453125 10.578125 -2.609375 C 10.148438 -1.773438 9.523438 -1.128906 8.703125 -0.671875 C 7.878906 -0.222656 6.898438 0 5.765625 0 L 1.640625 0 L 1.640625 -11.140625 Z M 5.765625 -1.875 C 6.773438 -1.875 7.5625 -2.1875 8.125 -2.8125 C 8.695312 -3.445312 8.984375 -4.363281 8.984375 -5.5625 C 8.984375 -6.769531 8.695312 -7.6875 8.125 -8.3125 C 7.5625 -8.945312 6.773438 -9.265625 5.765625 -9.265625 L 3.765625 -9.265625 L 3.765625 -1.875 Z M 5.765625 -1.875 "/></g></g></g><g fill="#000000" fill-opacity="1"><g transform="translate(231.579986, 334.123044)"><g><path d="M 3.765625 -9.28125 L 3.765625 -6.5 L 8.5625 -6.5 L 8.5625 -4.75 L 3.765625 -4.75 L 3.765625 -1.859375 L 8.90625 -1.859375 L 8.90625 0 L 1.640625 0 L 1.640625 -11.140625 L 8.90625 -11.140625 L 8.90625 -9.28125 Z M 3.765625 -9.28125 "/></g></g></g><g fill="#000000" fill-opacity="1"><g transform="translate(241.817526, 334.123044)"><g><path d="M 2.46875 -4.171875 C 2.46875 -4.785156 2.566406 -5.289062 2.765625 -5.6875 C 2.972656 -6.082031 3.21875 -6.394531 3.5 -6.625 C 3.789062 -6.851562 4.15625 -7.09375 4.59375 -7.34375 C 5.0625 -7.613281 5.40625 -7.851562 5.625 -8.0625 C 5.84375 -8.269531 5.953125 -8.550781 5.953125 -8.90625 C 5.953125 -9.375 5.742188 -9.738281 5.328125 -10 C 4.921875 -10.269531 4.382812 -10.40625 3.71875 -10.40625 C 2.695312 -10.40625 1.710938 -10.097656 0.765625 -9.484375 L 0.703125 -9.484375 L 0.703125 -11.375 C 1.628906 -11.957031 2.675781 -12.25 3.84375 -12.25 C 4.644531 -12.25 5.363281 -12.117188 6 -11.859375 C 6.632812 -11.609375 7.140625 -11.234375 7.515625 -10.734375 C 7.898438 -10.234375 8.09375 -9.625 8.09375 -8.90625 C 8.09375 -8.394531 7.992188 -7.96875 7.796875 -7.625 C 7.609375 -7.28125 7.375 -7.003906 7.09375 -6.796875 C 6.820312 -6.585938 6.46875 -6.363281 6.03125 -6.125 C 5.539062 -5.863281 5.175781 -5.617188 4.9375 -5.390625 C 4.695312 -5.171875 4.578125 -4.875 4.578125 -4.5 L 4.578125 -4.0625 L 2.46875 -4.0625 Z M 3.5 0.1875 C 3.101562 0.1875 2.769531 0.0546875 2.5 -0.203125 C 2.226562 -0.460938 2.09375 -0.804688 2.09375 -1.234375 C 2.09375 -1.660156 2.226562 -2.003906 2.5 -2.265625 C 2.769531 -2.523438 3.101562 -2.65625 3.5 -2.65625 C 3.894531 -2.65625 4.226562 -2.523438 4.5 -2.265625 C 4.769531 -2.003906 4.90625 -1.660156 4.90625 -1.234375 C 4.90625 -0.804688 4.769531 -0.460938 4.5 -0.203125 C 4.226562 0.0546875 3.894531 0.1875 3.5 0.1875 Z M 3.5 0.1875 "/></g></g></g><path fill="#000000" d="M 293.886719 297.585938 C 293.585938 297.683594 287.574219 299.1875 285.167969 304.199219 C 283.765625 307.203125 283.867188 310.609375 285.671875 314.417969 C 285.972656 315.117188 286.773438 315.621094 287.472656 315.621094 C 287.773438 315.621094 288.074219 315.519531 288.277344 315.417969 C 289.277344 314.917969 289.777344 313.816406 289.277344 312.714844 C 288.074219 310.007812 287.875 307.703125 288.777344 305.902344 C 290.378906 302.59375 294.789062 301.492188 294.789062 301.492188 C 295.890625 301.191406 296.492188 300.089844 296.292969 299.085938 C 296.089844 297.886719 294.988281 297.285156 293.886719 297.585938 Z M 293.886719 297.585938 " fill-opacity="1" fill-rule="nonzero"/><path fill="#000000" d="M 284.769531 348.285156 L 282.765625 345.878906 L 282.0625 348.882812 L 279.15625 349.988281 L 281.863281 351.589844 L 282.0625 354.59375 L 284.367188 352.589844 L 287.375 353.394531 L 286.171875 350.585938 L 287.875 347.984375 Z M 284.769531 348.285156 " fill-opacity="1" fill-rule="nonzero"/><path fill="#000000" d="M 285.46875 361.207031 L 284.066406 359.40625 L 283.566406 361.609375 L 281.363281 362.511719 L 283.367188 363.613281 L 283.464844 365.917969 L 285.269531 364.414062 L 287.472656 365.015625 L 286.574219 362.910156 L 287.773438 361.007812 Z M 285.46875 361.207031 " fill-opacity="1" fill-rule="nonzero"/><path fill="#000000" d="M 286.773438 372.332031 L 284.769531 369.925781 L 284.066406 372.929688 L 281.160156 374.035156 L 283.867188 375.636719 L 284.066406 378.640625 L 286.371094 376.636719 L 289.476562 377.441406 L 288.175781 374.632812 L 289.878906 372.03125 Z M 286.773438 372.332031 " fill-opacity="1" fill-rule="nonzero"/><g clip-path="url(#d6fc10cd9f)"><path fill="#000000" d="M 299.496094 317.222656 C 299.496094 315.417969 300.398438 313.816406 301.703125 312.914062 C 303.90625 311.511719 305.207031 309.40625 306.511719 307.402344 C 306.8125 307.003906 307.113281 306.5 307.3125 306.101562 C 309.117188 303.394531 312.722656 301.59375 316.230469 299.789062 C 317.734375 298.988281 319.4375 298.1875 320.839844 297.285156 C 322.441406 296.28125 323.542969 294.777344 323.746094 292.976562 C 323.945312 291.273438 323.445312 289.667969 322.242188 288.367188 C 319.9375 285.863281 315.730469 285.359375 312.722656 287.164062 L 306.410156 290.171875 L 306.410156 263.820312 C 306.410156 260.3125 303.203125 257.40625 299.296875 257.40625 C 295.390625 257.40625 292.183594 260.3125 292.183594 263.820312 L 292.183594 273.035156 C 291.28125 272.636719 290.179688 272.4375 289.175781 272.4375 C 287.273438 272.4375 285.46875 273.136719 284.167969 274.339844 C 282.863281 273.136719 281.0625 272.4375 278.957031 272.4375 C 277.855469 272.4375 276.851562 272.636719 275.851562 273.035156 L 275.851562 265.222656 C 275.851562 262.015625 272.746094 259.410156 268.738281 259.410156 C 264.730469 259.410156 261.625 261.914062 261.625 265.222656 L 261.625 304.796875 C 261.625 307.804688 263.328125 310.609375 266.234375 312.414062 C 267.835938 313.414062 268.738281 315.019531 268.738281 316.820312 L 268.738281 317.324219 C 268.738281 318.925781 269.539062 320.328125 270.742188 321.230469 L 270.339844 326.839844 C 268.835938 327.441406 267.734375 328.84375 267.535156 330.550781 L 267.234375 331.550781 L 264.828125 331.550781 C 263.726562 331.550781 262.824219 332.453125 262.824219 333.554688 C 262.824219 334.65625 263.726562 335.558594 264.828125 335.558594 L 266.332031 335.558594 L 265.933594 337.0625 C 265.933594 337.160156 265.832031 337.261719 265.832031 337.363281 C 265.730469 338.765625 266.132812 340.167969 267.035156 341.167969 C 267.636719 341.769531 268.335938 342.273438 269.136719 342.472656 L 265.933594 383.453125 C 265.832031 384.554688 266.734375 385.554688 267.835938 385.65625 C 268.9375 385.757812 269.941406 384.953125 270.039062 383.851562 L 273.347656 342.574219 L 294.988281 342.574219 L 298.296875 383.753906 C 298.394531 384.855469 299.296875 385.65625 300.300781 385.65625 L 300.5 385.65625 C 301.601562 385.554688 302.503906 384.65625 302.402344 383.453125 L 299.195312 342.472656 C 300 342.273438 300.699219 341.871094 301.300781 341.167969 C 302.203125 340.167969 302.703125 338.765625 302.503906 337.363281 L 302.503906 337.0625 L 302.101562 335.558594 L 303.605469 335.558594 C 304.707031 335.558594 305.609375 334.65625 305.609375 333.554688 C 305.609375 332.453125 304.707031 331.550781 303.605469 331.550781 L 301 331.550781 L 300.699219 330.550781 C 300.5 328.746094 299.296875 327.34375 297.894531 326.839844 L 297.394531 321.128906 C 298.695312 320.128906 299.496094 318.726562 299.496094 317.222656 Z M 286.273438 288.265625 L 286.273438 279.046875 C 286.273438 278.347656 286.574219 277.746094 287.074219 277.246094 C 287.675781 276.742188 288.476562 276.445312 289.277344 276.445312 C 290.980469 276.445312 292.285156 277.644531 292.285156 279.046875 L 292.285156 288.46875 C 292.285156 289.570312 290.878906 290.472656 289.277344 290.472656 C 288.375 290.472656 287.574219 290.171875 286.972656 289.769531 C 286.671875 289.570312 286.273438 289.066406 286.273438 288.46875 Z M 276.050781 283.457031 L 276.050781 278.546875 C 276.050781 277.847656 276.554688 277.445312 276.851562 277.144531 C 277.453125 276.644531 278.257812 276.445312 279.15625 276.445312 C 280.859375 276.445312 282.164062 277.445312 282.164062 278.546875 L 282.164062 288.464844 C 282.164062 289.570312 280.761719 290.46875 279.15625 290.46875 C 278.257812 290.46875 277.453125 290.171875 276.851562 289.769531 C 276.554688 289.570312 276.152344 289.066406 276.152344 288.464844 L 276.152344 283.457031 Z M 276.050781 336.558594 C 274.949219 336.558594 274.046875 335.660156 274.046875 334.554688 C 274.046875 333.453125 274.949219 332.550781 276.050781 332.550781 C 277.152344 332.550781 278.054688 333.453125 278.054688 334.554688 C 278.15625 335.660156 277.152344 336.558594 276.050781 336.558594 Z M 274.648438 326.539062 L 274.949219 322.53125 L 293.484375 322.53125 L 293.785156 326.539062 Z M 284.269531 336.558594 C 283.164062 336.558594 282.265625 335.660156 282.265625 334.554688 C 282.265625 333.453125 283.164062 332.550781 284.269531 332.550781 C 285.371094 332.550781 286.273438 333.453125 286.273438 334.554688 C 286.273438 335.660156 285.371094 336.558594 284.269531 336.558594 Z M 292.382812 336.558594 C 291.28125 336.558594 290.378906 335.660156 290.378906 334.554688 C 290.378906 333.453125 291.28125 332.550781 292.382812 332.550781 C 293.484375 332.550781 294.386719 333.453125 294.386719 334.554688 C 294.386719 335.660156 293.484375 336.558594 292.382812 336.558594 Z M 295.390625 317.222656 C 295.390625 317.824219 294.488281 318.523438 293.285156 318.523438 L 275.148438 318.523438 C 273.949219 318.523438 273.046875 317.824219 273.046875 317.222656 L 273.046875 316.722656 C 273.046875 313.617188 271.441406 310.710938 268.636719 309.007812 C 266.933594 307.90625 265.933594 306.402344 265.933594 304.796875 L 265.933594 265.222656 C 265.933594 264.421875 267.234375 263.417969 268.9375 263.417969 C 270.640625 263.417969 271.945312 264.320312 271.945312 265.222656 L 271.945312 288.464844 C 271.945312 290.171875 272.746094 291.773438 274.148438 292.875 C 275.449219 293.878906 277.152344 294.476562 279.058594 294.476562 C 281.0625 294.476562 282.863281 293.777344 284.167969 292.675781 L 284.367188 292.875 C 285.671875 293.878906 287.375 294.476562 289.277344 294.476562 C 293.183594 294.476562 296.390625 291.773438 296.390625 288.464844 L 296.390625 263.820312 C 296.390625 262.515625 297.792969 261.414062 299.398438 261.414062 C 301.101562 261.414062 302.402344 262.515625 302.402344 263.820312 L 302.402344 293.476562 C 302.402344 294.179688 302.804688 294.777344 303.40625 295.179688 C 304.007812 295.582031 304.707031 295.582031 305.410156 295.28125 L 314.726562 290.769531 C 314.828125 290.769531 314.828125 290.671875 314.925781 290.671875 C 316.332031 289.871094 318.335938 290.070312 319.335938 291.070312 C 319.738281 291.472656 319.835938 291.972656 319.835938 292.375 C 319.738281 292.875 319.4375 293.375 318.835938 293.777344 C 317.53125 294.578125 316.03125 295.378906 314.527344 296.183594 C 310.519531 298.1875 306.410156 300.289062 304.105469 303.898438 C 303.804688 304.398438 303.503906 304.796875 303.203125 305.300781 C 302.101562 307.101562 301.101562 308.605469 299.597656 309.507812 C 296.992188 311.109375 295.390625 314.015625 295.390625 317.222656 Z M 295.390625 317.222656 " fill-opacity="1" fill-rule="nonzero"/></g></svg>