<svg xmlns="http://www.w3.org/2000/svg" xmlns:xlink="http://www.w3.org/1999/xlink" width="1280" zoomAndPan="magnify" viewBox="0 0 960 191.999996" height="256" preserveAspectRatio="xMidYMid meet" version="1.0"><defs><g/><clipPath id="18c120aeae"><path d="M 31 52.863281 L 114 52.863281 L 114 192 L 31 192 Z M 31 52.863281 " clip-rule="nonzero"/></clipPath></defs><g fill="#000000" fill-opacity="1"><g transform="translate(124.448573, 127.887049)"><g><path d="M 38.6875 -8.59375 C 38.976562 -7.445312 39.125 -6.015625 39.125 -4.296875 C 39.125 -2.648438 38.976562 -1.21875 38.6875 0 L 8.59375 0 C 8.3125 -1.21875 8.171875 -2.648438 8.171875 -4.296875 C 8.171875 -6.015625 8.3125 -7.445312 8.59375 -8.59375 C 8.3125 -9.8125 8.171875 -11.242188 8.171875 -12.890625 C 8.171875 -14.617188 8.3125 -16.054688 8.59375 -17.203125 C 8.3125 -18.421875 8.171875 -19.851562 8.171875 -21.5 C 8.171875 -23.21875 8.3125 -24.648438 8.59375 -25.796875 C 8.3125 -27.015625 8.171875 -28.445312 8.171875 -30.09375 C 8.171875 -31.8125 8.3125 -33.242188 8.59375 -34.390625 C 8.3125 -35.609375 8.171875 -37.039062 8.171875 -38.6875 C 8.171875 -40.414062 8.3125 -41.851562 8.59375 -43 C 8.3125 -44.21875 8.171875 -45.648438 8.171875 -47.296875 C 8.171875 -49.015625 8.3125 -50.445312 8.59375 -51.59375 C 8.3125 -52.8125 8.171875 -54.242188 8.171875 -55.890625 C 8.171875 -57.609375 8.3125 -59.039062 8.59375 -60.1875 L 17.203125 -60.1875 C 17.484375 -59.039062 17.625 -57.609375 17.625 -55.890625 C 17.625 -54.242188 17.484375 -52.8125 17.203125 -51.59375 C 17.484375 -50.445312 17.625 -49.015625 17.625 -47.296875 C 17.625 -45.648438 17.484375 -44.21875 17.203125 -43 C 17.484375 -41.851562 17.625 -40.414062 17.625 -38.6875 C 17.625 -37.039062 17.484375 -35.609375 17.203125 -34.390625 C 17.484375 -33.242188 17.625 -31.8125 17.625 -30.09375 C 17.625 -28.445312 17.484375 -27.015625 17.203125 -25.796875 C 17.484375 -24.648438 17.625 -23.21875 17.625 -21.5 C 17.625 -19.851562 17.484375 -18.421875 17.203125 -17.203125 C 17.484375 -16.054688 17.625 -14.617188 17.625 -12.890625 C 17.625 -11.242188 17.484375 -9.8125 17.203125 -8.59375 Z M 38.6875 -8.59375 "/></g></g></g><g fill="#000000" fill-opacity="1"><g transform="translate(173.460745, 127.887049)"><g><path d="M 17.203125 -25.796875 C 17.484375 -24.648438 17.625 -23.21875 17.625 -21.5 C 17.625 -19.851562 17.484375 -18.421875 17.203125 -17.203125 C 17.484375 -16.054688 17.625 -14.617188 17.625 -12.890625 C 17.625 -11.242188 17.484375 -9.8125 17.203125 -8.59375 L 34.390625 -8.59375 C 34.679688 -7.445312 34.828125 -6.015625 34.828125 -4.296875 C 34.828125 -2.648438 34.679688 -1.21875 34.390625 0 L 8.59375 0 C 8.3125 -1.21875 8.171875 -2.648438 8.171875 -4.296875 C 8.171875 -6.015625 8.3125 -7.445312 8.59375 -8.59375 C 8.3125 -9.8125 8.171875 -11.242188 8.171875 -12.890625 C 8.171875 -14.617188 8.3125 -16.054688 8.59375 -17.203125 C 8.3125 -18.421875 8.171875 -19.851562 8.171875 -21.5 C 8.171875 -23.21875 8.3125 -24.648438 8.59375 -25.796875 C 8.3125 -27.015625 8.171875 -28.445312 8.171875 -30.09375 C 8.171875 -31.8125 8.3125 -33.242188 8.59375 -34.390625 C 8.3125 -35.609375 8.171875 -37.039062 8.171875 -38.6875 C 8.171875 -40.414062 8.3125 -41.851562 8.59375 -43 C 8.3125 -44.21875 8.171875 -45.648438 8.171875 -47.296875 C 8.171875 -49.015625 8.3125 -50.445312 8.59375 -51.59375 C 8.3125 -52.8125 8.171875 -54.242188 8.171875 -55.890625 C 8.171875 -57.609375 8.3125 -59.039062 8.59375 -60.1875 L 34.390625 -60.1875 C 34.679688 -59.039062 34.828125 -57.609375 34.828125 -55.890625 C 34.828125 -54.242188 34.679688 -52.8125 34.390625 -51.59375 L 17.203125 -51.59375 C 17.484375 -50.445312 17.625 -49.015625 17.625 -47.296875 C 17.625 -45.648438 17.484375 -44.21875 17.203125 -43 C 17.484375 -41.851562 17.625 -40.414062 17.625 -38.6875 C 17.625 -37.039062 17.484375 -35.609375 17.203125 -34.390625 L 34.390625 -34.390625 C 34.679688 -33.242188 34.828125 -31.8125 34.828125 -30.09375 C 34.828125 -28.445312 34.679688 -27.015625 34.390625 -25.796875 Z M 17.203125 -25.796875 "/></g></g></g><g fill="#000000" fill-opacity="1"><g transform="translate(222.472917, 127.887049)"><g><path d="M 38.6875 -34.390625 C 38.976562 -33.242188 39.125 -31.8125 39.125 -30.09375 C 39.125 -28.445312 38.976562 -27.015625 38.6875 -25.796875 C 38.976562 -24.648438 39.125 -23.21875 39.125 -21.5 C 39.125 -19.851562 38.976562 -18.421875 38.6875 -17.203125 C 38.976562 -16.054688 39.125 -14.617188 39.125 -12.890625 C 39.125 -11.242188 38.976562 -9.8125 38.6875 -8.59375 L 34.390625 -8.59375 C 34.679688 -7.445312 34.828125 -6.015625 34.828125 -4.296875 C 34.828125 -2.648438 34.679688 -1.21875 34.390625 0 L 12.890625 0 C 12.609375 -1.21875 12.46875 -2.648438 12.46875 -4.296875 C 12.46875 -6.015625 12.609375 -7.445312 12.890625 -8.59375 L 8.59375 -8.59375 C 8.3125 -9.8125 8.171875 -11.242188 8.171875 -12.890625 C 8.171875 -14.617188 8.3125 -16.054688 8.59375 -17.203125 L 4.296875 -17.203125 C 4.015625 -18.421875 3.875 -19.851562 3.875 -21.5 C 3.875 -23.21875 4.015625 -24.648438 4.296875 -25.796875 C 4.015625 -27.015625 3.875 -28.445312 3.875 -30.09375 C 3.875 -31.8125 4.015625 -33.242188 4.296875 -34.390625 C 4.015625 -35.609375 3.875 -37.039062 3.875 -38.6875 C 3.875 -40.414062 4.015625 -41.851562 4.296875 -43 L 8.59375 -43 C 8.3125 -44.21875 8.171875 -45.648438 8.171875 -47.296875 C 8.171875 -49.015625 8.3125 -50.445312 8.59375 -51.59375 L 12.890625 -51.59375 C 12.609375 -52.8125 12.46875 -54.242188 12.46875 -55.890625 C 12.46875 -57.609375 12.609375 -59.039062 12.890625 -60.1875 L 34.390625 -60.1875 C 34.679688 -59.039062 34.828125 -57.609375 34.828125 -55.890625 C 34.828125 -54.242188 34.679688 -52.8125 34.390625 -51.59375 L 38.6875 -51.59375 C 38.976562 -50.445312 39.125 -49.015625 39.125 -47.296875 C 39.125 -45.648438 38.976562 -44.21875 38.6875 -43 L 30.09375 -43 C 29.8125 -44.21875 29.671875 -45.648438 29.671875 -47.296875 C 29.671875 -49.015625 29.8125 -50.445312 30.09375 -51.59375 L 17.203125 -51.59375 C 17.484375 -50.445312 17.625 -49.015625 17.625 -47.296875 C 17.625 -45.648438 17.484375 -44.21875 17.203125 -43 L 12.890625 -43 C 13.179688 -41.851562 13.328125 -40.414062 13.328125 -38.6875 C 13.328125 -37.039062 13.179688 -35.609375 12.890625 -34.390625 C 13.179688 -33.242188 13.328125 -31.8125 13.328125 -30.09375 C 13.328125 -28.445312 13.179688 -27.015625 12.890625 -25.796875 C 13.179688 -24.648438 13.328125 -23.21875 13.328125 -21.5 C 13.328125 -19.851562 13.179688 -18.421875 12.890625 -17.203125 L 17.203125 -17.203125 C 17.484375 -16.054688 17.625 -14.617188 17.625 -12.890625 C 17.625 -11.242188 17.484375 -9.8125 17.203125 -8.59375 L 30.09375 -8.59375 C 29.8125 -9.8125 29.671875 -11.242188 29.671875 -12.890625 C 29.671875 -14.617188 29.8125 -16.054688 30.09375 -17.203125 C 29.8125 -18.421875 29.671875 -19.851562 29.671875 -21.5 C 29.671875 -23.21875 29.8125 -24.648438 30.09375 -25.796875 L 23.640625 -25.796875 C 23.359375 -27.015625 23.21875 -28.445312 23.21875 -30.09375 C 23.21875 -31.8125 23.359375 -33.242188 23.640625 -34.390625 Z M 38.6875 -34.390625 "/></g></g></g><g fill="#000000" fill-opacity="1"><g transform="translate(271.485092, 127.887049)"><g><path d="M 39.125 -12.890625 C 39.125 -11.242188 38.976562 -9.8125 38.6875 -8.59375 C 38.976562 -7.445312 39.125 -6.015625 39.125 -4.296875 C 39.125 -2.648438 38.976562 -1.21875 38.6875 0 L 30.09375 0 C 29.8125 -1.21875 29.671875 -2.648438 29.671875 -4.296875 C 29.671875 -6.015625 29.8125 -7.445312 30.09375 -8.59375 C 29.8125 -9.8125 29.671875 -11.242188 29.671875 -12.890625 C 29.671875 -14.617188 29.8125 -16.054688 30.09375 -17.203125 L 12.890625 -17.203125 C 13.179688 -16.054688 13.328125 -14.617188 13.328125 -12.890625 C 13.328125 -11.242188 13.179688 -9.8125 12.890625 -8.59375 C 13.179688 -7.445312 13.328125 -6.015625 13.328125 -4.296875 C 13.328125 -2.648438 13.179688 -1.21875 12.890625 0 L 4.296875 0 C 4.015625 -1.21875 3.875 -2.648438 3.875 -4.296875 C 3.875 -6.015625 4.015625 -7.445312 4.296875 -8.59375 C 4.015625 -9.8125 3.875 -11.242188 3.875 -12.890625 C 3.875 -14.617188 4.015625 -16.054688 4.296875 -17.203125 L 7.53125 -17.203125 C 7.238281 -18.421875 7.09375 -19.851562 7.09375 -21.5 C 7.09375 -23.21875 7.238281 -24.648438 7.53125 -25.796875 C 7.238281 -27.015625 7.09375 -28.445312 7.09375 -30.09375 C 7.09375 -31.8125 7.238281 -33.242188 7.53125 -34.390625 L 9.671875 -34.390625 C 9.390625 -35.609375 9.25 -37.039062 9.25 -38.6875 C 9.25 -40.414062 9.390625 -41.851562 9.671875 -43 L 12.890625 -43 C 12.609375 -44.21875 12.46875 -45.648438 12.46875 -47.296875 C 12.46875 -49.015625 12.609375 -50.445312 12.890625 -51.59375 L 15.046875 -51.59375 C 14.765625 -52.8125 14.625 -54.242188 14.625 -55.890625 C 14.625 -57.609375 14.765625 -59.039062 15.046875 -60.1875 L 27.953125 -60.1875 C 28.234375 -59.039062 28.375 -57.609375 28.375 -55.890625 C 28.375 -54.242188 28.234375 -52.8125 27.953125 -51.59375 L 30.09375 -51.59375 C 30.382812 -50.445312 30.53125 -49.015625 30.53125 -47.296875 C 30.53125 -45.648438 30.382812 -44.21875 30.09375 -43 L 33.3125 -43 C 33.601562 -41.851562 33.75 -40.414062 33.75 -38.6875 C 33.75 -37.039062 33.601562 -35.609375 33.3125 -34.390625 L 35.46875 -34.390625 C 35.757812 -33.242188 35.90625 -31.8125 35.90625 -30.09375 C 35.90625 -28.445312 35.757812 -27.015625 35.46875 -25.796875 C 35.757812 -24.648438 35.90625 -23.21875 35.90625 -21.5 C 35.90625 -19.851562 35.757812 -18.421875 35.46875 -17.203125 L 38.6875 -17.203125 C 38.976562 -16.054688 39.125 -14.617188 39.125 -12.890625 Z M 26.875 -25.796875 C 26.582031 -27.015625 26.4375 -28.445312 26.4375 -30.09375 C 26.4375 -31.8125 26.582031 -33.242188 26.875 -34.390625 L 24.71875 -34.390625 C 24.4375 -35.609375 24.296875 -37.039062 24.296875 -38.6875 C 24.296875 -40.414062 24.4375 -41.851562 24.71875 -43 L 18.265625 -43 C 18.554688 -41.851562 18.703125 -40.414062 18.703125 -38.6875 C 18.703125 -37.039062 18.554688 -35.609375 18.265625 -34.390625 L 16.125 -34.390625 C 16.40625 -33.242188 16.546875 -31.8125 16.546875 -30.09375 C 16.546875 -28.445312 16.40625 -27.015625 16.125 -25.796875 Z M 26.875 -25.796875 "/></g></g></g><g fill="#000000" fill-opacity="1"><g transform="translate(320.497262, 127.887049)"><g><path d="M 38.6875 -17.203125 C 38.976562 -16.054688 39.125 -14.617188 39.125 -12.890625 C 39.125 -11.242188 38.976562 -9.8125 38.6875 -8.59375 L 34.390625 -8.59375 C 34.679688 -7.445312 34.828125 -6.015625 34.828125 -4.296875 C 34.828125 -2.648438 34.679688 -1.21875 34.390625 0 L 12.890625 0 C 12.609375 -1.21875 12.46875 -2.648438 12.46875 -4.296875 C 12.46875 -6.015625 12.609375 -7.445312 12.890625 -8.59375 L 8.59375 -8.59375 C 8.3125 -9.8125 8.171875 -11.242188 8.171875 -12.890625 C 8.171875 -14.617188 8.3125 -16.054688 8.59375 -17.203125 L 4.296875 -17.203125 C 4.015625 -18.421875 3.875 -19.851562 3.875 -21.5 C 3.875 -23.21875 4.015625 -24.648438 4.296875 -25.796875 C 4.015625 -27.015625 3.875 -28.445312 3.875 -30.09375 C 3.875 -31.8125 4.015625 -33.242188 4.296875 -34.390625 C 4.015625 -35.609375 3.875 -37.039062 3.875 -38.6875 C 3.875 -40.414062 4.015625 -41.851562 4.296875 -43 L 8.59375 -43 C 8.3125 -44.21875 8.171875 -45.648438 8.171875 -47.296875 C 8.171875 -49.015625 8.3125 -50.445312 8.59375 -51.59375 L 12.890625 -51.59375 C 12.609375 -52.8125 12.46875 -54.242188 12.46875 -55.890625 C 12.46875 -57.609375 12.609375 -59.039062 12.890625 -60.1875 L 34.390625 -60.1875 C 34.679688 -59.039062 34.828125 -57.609375 34.828125 -55.890625 C 34.828125 -54.242188 34.679688 -52.8125 34.390625 -51.59375 L 38.6875 -51.59375 C 38.976562 -50.445312 39.125 -49.015625 39.125 -47.296875 C 39.125 -45.648438 38.976562 -44.21875 38.6875 -43 L 30.09375 -43 C 29.8125 -44.21875 29.671875 -45.648438 29.671875 -47.296875 C 29.671875 -49.015625 29.8125 -50.445312 30.09375 -51.59375 L 17.203125 -51.59375 C 17.484375 -50.445312 17.625 -49.015625 17.625 -47.296875 C 17.625 -45.648438 17.484375 -44.21875 17.203125 -43 L 12.890625 -43 C 13.179688 -41.851562 13.328125 -40.414062 13.328125 -38.6875 C 13.328125 -37.039062 13.179688 -35.609375 12.890625 -34.390625 C 13.179688 -33.242188 13.328125 -31.8125 13.328125 -30.09375 C 13.328125 -28.445312 13.179688 -27.015625 12.890625 -25.796875 C 13.179688 -24.648438 13.328125 -23.21875 13.328125 -21.5 C 13.328125 -19.851562 13.179688 -18.421875 12.890625 -17.203125 L 17.203125 -17.203125 C 17.484375 -16.054688 17.625 -14.617188 17.625 -12.890625 C 17.625 -11.242188 17.484375 -9.8125 17.203125 -8.59375 L 30.09375 -8.59375 C 29.8125 -9.8125 29.671875 -11.242188 29.671875 -12.890625 C 29.671875 -14.617188 29.8125 -16.054688 30.09375 -17.203125 Z M 38.6875 -17.203125 "/></g></g></g><g fill="#000000" fill-opacity="1"><g transform="translate(369.509431, 127.887049)"><g><path d="M 39.125 -55.890625 C 39.125 -54.242188 38.976562 -52.8125 38.6875 -51.59375 C 38.976562 -50.445312 39.125 -49.015625 39.125 -47.296875 C 39.125 -45.648438 38.976562 -44.21875 38.6875 -43 L 34.390625 -43 C 34.679688 -41.851562 34.828125 -40.414062 34.828125 -38.6875 C 34.828125 -37.039062 34.679688 -35.609375 34.390625 -34.390625 L 30.09375 -34.390625 C 30.382812 -33.242188 30.53125 -31.8125 30.53125 -30.09375 C 30.53125 -28.445312 30.382812 -27.015625 30.09375 -25.796875 L 25.796875 -25.796875 C 26.078125 -24.648438 26.21875 -23.21875 26.21875 -21.5 C 26.21875 -19.851562 26.078125 -18.421875 25.796875 -17.203125 C 26.078125 -16.054688 26.21875 -14.617188 26.21875 -12.890625 C 26.21875 -11.242188 26.078125 -9.8125 25.796875 -8.59375 C 26.078125 -7.445312 26.21875 -6.015625 26.21875 -4.296875 C 26.21875 -2.648438 26.078125 -1.21875 25.796875 0 L 17.203125 0 C 16.910156 -1.21875 16.765625 -2.648438 16.765625 -4.296875 C 16.765625 -6.015625 16.910156 -7.445312 17.203125 -8.59375 C 16.910156 -9.8125 16.765625 -11.242188 16.765625 -12.890625 C 16.765625 -14.617188 16.910156 -16.054688 17.203125 -17.203125 C 16.910156 -18.421875 16.765625 -19.851562 16.765625 -21.5 C 16.765625 -23.21875 16.910156 -24.648438 17.203125 -25.796875 L 12.890625 -25.796875 C 12.609375 -27.015625 12.46875 -28.445312 12.46875 -30.09375 C 12.46875 -31.8125 12.609375 -33.242188 12.890625 -34.390625 L 8.59375 -34.390625 C 8.3125 -35.609375 8.171875 -37.039062 8.171875 -38.6875 C 8.171875 -40.414062 8.3125 -41.851562 8.59375 -43 L 4.296875 -43 C 4.015625 -44.21875 3.875 -45.648438 3.875 -47.296875 C 3.875 -49.015625 4.015625 -50.445312 4.296875 -51.59375 C 4.015625 -52.8125 3.875 -54.242188 3.875 -55.890625 C 3.875 -57.609375 4.015625 -59.039062 4.296875 -60.1875 L 12.890625 -60.1875 C 13.179688 -59.039062 13.328125 -57.609375 13.328125 -55.890625 C 13.328125 -54.242188 13.179688 -52.8125 12.890625 -51.59375 C 13.179688 -50.445312 13.328125 -49.015625 13.328125 -47.296875 C 13.328125 -45.648438 13.179688 -44.21875 12.890625 -43 L 17.203125 -43 C 17.484375 -41.851562 17.625 -40.414062 17.625 -38.6875 C 17.625 -37.039062 17.484375 -35.609375 17.203125 -34.390625 L 25.796875 -34.390625 C 25.503906 -35.609375 25.359375 -37.039062 25.359375 -38.6875 C 25.359375 -40.414062 25.503906 -41.851562 25.796875 -43 L 30.09375 -43 C 29.8125 -44.21875 29.671875 -45.648438 29.671875 -47.296875 C 29.671875 -49.015625 29.8125 -50.445312 30.09375 -51.59375 C 29.8125 -52.8125 29.671875 -54.242188 29.671875 -55.890625 C 29.671875 -57.609375 29.8125 -59.039062 30.09375 -60.1875 L 38.6875 -60.1875 C 38.976562 -59.039062 39.125 -57.609375 39.125 -55.890625 Z M 39.125 -55.890625 "/></g></g></g><g fill="#a21f1f" fill-opacity="1"><g transform="translate(662.242817, 119.688985)"><g><path d="M 54.410156 -8.253906 C 53.355469 -10.84375 51.054688 -11.515625 48.75 -12.957031 C 42.609375 -16.410156 36.179688 -19.480469 29.941406 -23.03125 C 30.613281 -23.414062 30.132812 -24.085938 30.515625 -24.472656 C 31.667969 -25.238281 31.1875 -25.621094 31.667969 -26.292969 C 34.355469 -28.695312 38 -30.132812 41.167969 -32.339844 C 45.390625 -35.21875 49.804688 -37.234375 49.804688 -44.046875 C 49.804688 -49.902344 45.199219 -55.753906 38.386719 -55.753906 C 33.394531 -55.753906 28.789062 -54.027344 24.085938 -51.726562 C 22.457031 -50.859375 20.632812 -49.324219 18.617188 -49.324219 C 17.945312 -49.324219 17.5625 -49.519531 17.082031 -49.519531 C 12.957031 -49.519531 10.171875 -46.160156 9.691406 -42.03125 C 8.539062 -35.890625 6.429688 -29.84375 4.988281 -23.605469 C 4.511719 -21.398438 4.125 -18.714844 3.453125 -16.3125 C 2.78125 -13.914062 3.167969 -11.324219 2.398438 -8.925781 C 2.304688 -8.253906 2.207031 -7.484375 2.207031 -6.71875 C 2.207031 -3.261719 1.535156 0.769531 5.660156 3.070312 C 6.332031 3.550781 7.003906 3.839844 7.675781 3.839844 C 9.980469 3.839844 11.804688 -0.382812 12.570312 -2.304688 C 12.476562 -2.207031 12.476562 -2.109375 12.476562 -2.109375 C 12.957031 -3.550781 13.722656 -5.277344 13.722656 -6.8125 C 14.105469 -8.445312 15.257812 -10.078125 15.257812 -11.898438 L 15.257812 -12.570312 C 15.257812 -13.820312 22.070312 -16.21875 21.207031 -16.21875 C 22.457031 -16.21875 25.910156 -14.394531 27.925781 -13.339844 C 31.667969 -11.515625 35.316406 -9.5 39.25 -8.0625 C 42.609375 -6.71875 47.40625 -4.320312 49.421875 -4.320312 C 50.476562 -4.320312 54.605469 -4.988281 54.605469 -6.910156 C 54.605469 -7.390625 54.507812 -7.867188 54.410156 -8.253906 Z M 25.429688 -32.628906 L 25.527344 -32.628906 L 25.238281 -32.53125 C 25.335938 -32.53125 25.335938 -32.53125 25.429688 -32.628906 C 23.992188 -31.957031 22.550781 -31.476562 21.015625 -30.996094 L 21.398438 -32.722656 C 21.304688 -32.628906 21.304688 -32.53125 21.304688 -32.53125 L 21.398438 -32.820312 L 21.398438 -32.722656 C 22.457031 -34.738281 23.222656 -36.851562 24.472656 -38.769531 C 26.484375 -42.03125 33.109375 -43.855469 35.121094 -44.335938 C 36.179688 -44.527344 37.234375 -44.816406 38.097656 -45.199219 C 38.097656 -39.824219 28.886719 -33.972656 26.582031 -33.203125 Z M 25.429688 -32.628906 "/></g></g></g><g fill="#a21f1f" fill-opacity="1"><g transform="translate(713.288098, 119.688985)"><g><path d="M 52.109375 -28.214844 C 51.339844 -31.957031 50.382812 -35.699219 48.175781 -39.058594 C 46.542969 -42.222656 43.375 -44.238281 41.074219 -46.832031 C 38.386719 -49.804688 36.179688 -52.203125 32.4375 -52.203125 C 29.652344 -52.203125 24.472656 -50.09375 24.085938 -49.710938 C 22.648438 -48.847656 20.921875 -48.847656 19.097656 -47.695312 C 9.117188 -40.496094 2.496094 -24.757812 2.496094 -15.355469 C 2.496094 -2.976562 15.066406 4.703125 25.046875 4.988281 C 43.28125 4.988281 53.164062 -12.089844 53.164062 -22.457031 C 52.109375 -24.277344 52.398438 -26.292969 52.109375 -28.214844 Z M 41.074219 -20.25 C 40.59375 -18.042969 39.730469 -15.640625 38.289062 -13.820312 L 38.289062 -13.914062 C 34.546875 -8.925781 32.050781 -5.757812 24.183594 -5.757812 C 20.34375 -5.757812 13.433594 -6.910156 13.433594 -13.339844 C 13.433594 -23.414062 21.015625 -34.453125 26.871094 -39.058594 C 27.15625 -39.34375 27.542969 -39.441406 28.214844 -39.441406 L 29.652344 -39.34375 C 30.707031 -39.34375 31.285156 -39.441406 32.339844 -39.921875 C 37.234375 -35.988281 41.648438 -32.53125 41.648438 -24.757812 C 41.648438 -23.128906 41.457031 -21.6875 41.074219 -20.25 Z M 41.074219 -20.25 "/></g></g></g><g fill="#a21f1f" fill-opacity="1"><g transform="translate(767.403761, 119.688985)"><g><path d="M 45.773438 -46.253906 L 45.582031 -47.117188 L 45.679688 -47.695312 L 44.429688 -49.996094 L 43.761719 -50.957031 L 43.089844 -51.820312 L 42.992188 -52.011719 L 42.03125 -52.492188 L 40.976562 -52.972656 C 40.976562 -52.972656 40.976562 -52.972656 40.976562 -53.070312 L 40.785156 -53.070312 C 40.785156 -53.164062 40.6875 -53.164062 40.6875 -53.261719 L 39.824219 -53.933594 L 38.480469 -54.605469 L 36.851562 -55.082031 L 35.699219 -55.082031 L 30.421875 -54.21875 L 28.117188 -53.164062 C 28.117188 -53.070312 28.023438 -53.070312 28.023438 -53.070312 L 27.828125 -53.164062 L 26.679688 -52.589844 L 26.007812 -51.820312 L 24.566406 -50.859375 L 24.277344 -50.382812 L 23.703125 -50.1875 L 20.824219 -46.925781 L 19.480469 -45.871094 L 16.792969 -42.609375 L 16.601562 -42.128906 L 16.027344 -41.746094 L 12.859375 -37.714844 L 11.132812 -35.410156 C 10.078125 -33.972656 8.734375 -32.722656 7.773438 -30.324219 C 7.675781 -30.230469 7.582031 -30.230469 7.484375 -30.132812 L 6.332031 -28.40625 L 6.140625 -27.734375 L 5.375 -26.773438 L 2.109375 -19.769531 L 1.34375 -17.273438 L 0.671875 -15.640625 L 0.480469 -13.914062 L 0.289062 -13.148438 L 0.382812 -12.378906 L 0 -11.226562 L 0 -7.484375 L 0.382812 -4.511719 L 2.304688 -0.671875 L 4.125 1.441406 L 6.8125 3.359375 L 9.882812 4.796875 L 13.820312 5.660156 L 21.304688 4.988281 L 24.085938 3.839844 L 24.472656 3.839844 L 27.445312 2.398438 L 28.40625 2.015625 L 29.363281 0.0976562 L 29.078125 -0.671875 L 29.363281 -1.152344 L 29.171875 -1.535156 L 28.980469 -1.34375 L 28.789062 -2.496094 L 28.40625 -2.589844 L 28.597656 -2.78125 L 28.308594 -3.167969 L 26.871094 -3.742188 L 21.113281 -2.6875 L 18.714844 -2.6875 L 17.082031 -2.878906 L 15.738281 -3.648438 L 14.96875 -4.703125 L 14.585938 -6.238281 L 14.585938 -8.445312 L 15.164062 -11.613281 L 17.175781 -17.5625 L 18.234375 -20.054688 L 19.289062 -21.878906 L 20.152344 -24.375 L 20.921875 -25.144531 L 22.933594 -28.597656 L 24.277344 -31.574219 L 26.390625 -34.355469 L 28.023438 -35.792969 C 28.980469 -36.5625 29.75 -37.90625 30.804688 -38.671875 L 32.339844 -39.730469 L 33.585938 -40.6875 C 34.257812 -40.882812 34.835938 -41.167969 35.507812 -41.550781 L 36.082031 -41.648438 L 36.179688 -41.839844 C 36.5625 -41.457031 36.660156 -41.167969 36.660156 -41.167969 L 36.753906 -41.265625 L 36.945312 -40.785156 L 37.523438 -40.304688 L 38.480469 -40.015625 L 39.152344 -40.015625 C 39.25 -40.015625 39.730469 -40.015625 40.304688 -40.210938 L 40.496094 -40.210938 C 40.59375 -40.210938 40.6875 -40.210938 40.785156 -40.210938 L 41.9375 -39.539062 L 42.417969 -39.730469 L 42.800781 -39.25 L 45.296875 -40.496094 L 45.199219 -40.785156 L 45.390625 -40.882812 L 45.390625 -41.746094 L 46.351562 -42.320312 Z M 40.785156 -52.875 L 40.6875 -52.683594 Z M 40.785156 -52.875 "/></g></g></g><g fill="#a21f1f" fill-opacity="1"><g transform="translate(804.056569, 119.688985)"><g><path d="M 60.9375 -52.011719 L 60.265625 -53.164062 L 59.304688 -53.738281 L 58.058594 -53.835938 C 57.289062 -53.546875 56.617188 -53.355469 56.042969 -53.164062 C 54.988281 -52.875 54.027344 -52.492188 53.933594 -52.492188 C 53.835938 -52.492188 53.738281 -52.492188 53.644531 -52.398438 L 52.492188 -52.492188 C 52.398438 -52.398438 52.203125 -52.300781 52.011719 -52.203125 C 51.628906 -52.109375 51.4375 -52.011719 51.339844 -52.011719 L 50.382812 -51.628906 C 50.476562 -51.53125 49.324219 -51.246094 49.230469 -51.246094 L 48.847656 -50.957031 C 48.175781 -50.574219 41.074219 -45.96875 36.082031 -42.800781 L 35.792969 -42.609375 C 35.699219 -42.609375 35.699219 -42.609375 35.699219 -42.511719 C 35.601562 -42.417969 35.601562 -42.320312 35.601562 -42.320312 C 32.628906 -40.785156 28.695312 -38.386719 28.40625 -38.671875 L 28.117188 -38.578125 C 27.925781 -38.480469 27.734375 -38.289062 27.445312 -38.195312 L 26.101562 -37.332031 L 26.199219 -37.90625 C 26.199219 -38 26.199219 -38.195312 26.292969 -38.289062 L 26.390625 -38.671875 C 26.292969 -38.769531 26.484375 -39.058594 26.582031 -39.34375 L 26.773438 -39.730469 L 26.871094 -40.015625 C 27.253906 -41.457031 27.542969 -42.894531 27.828125 -43.375 L 28.40625 -48.460938 L 28.308594 -49.902344 L 27.925781 -50.859375 L 26.773438 -52.011719 L 25.71875 -52.398438 L 23.320312 -52.398438 C 21.785156 -52.011719 19.960938 -51.4375 19.671875 -51.53125 L 19 -51.148438 L 17.464844 -49.710938 L 16.3125 -48.175781 L 14.394531 -44.335938 C 14.394531 -44.046875 14.011719 -42.320312 13.722656 -42.03125 L 13.53125 -41.550781 C 13.820312 -40.785156 12.761719 -38.578125 12.285156 -37.808594 L 12.089844 -37.332031 C 12.089844 -36.945312 11.804688 -35.316406 11.417969 -35.316406 L 9.597656 -31.285156 L 9.5 -30.996094 L 9.308594 -30.230469 C 9.210938 -29.75 9.117188 -29.363281 9.117188 -29.269531 C 9.117188 -29.171875 8.445312 -27.253906 7.773438 -25.429688 L 6.527344 -21.785156 L 6.429688 -21.496094 C 6.429688 -21.015625 6.046875 -19.480469 5.949219 -19.386719 L 4.414062 -13.050781 C 3.648438 -9.789062 2.398438 -2.878906 2.398438 -3.742188 L 2.304688 -1.34375 L 2.976562 -0.0976562 C 2.976562 0 2.976562 0 3.070312 0 C 3.070312 0 3.167969 0.0976562 3.453125 0.191406 L 3.453125 0.382812 L 4.222656 1.34375 C 4.222656 1.441406 4.511719 1.441406 4.414062 1.535156 L 5.855469 2.976562 L 7.292969 2.976562 L 8.347656 2.496094 L 9.980469 0.480469 L 12.089844 -3.453125 C 13.722656 -7.675781 14.683594 -9.5 15.164062 -9.789062 L 15.355469 -10.171875 L 15.929688 -11.898438 L 16.699219 -11.226562 L 17.082031 -10.84375 L 17.847656 -10.460938 L 18.042969 -10.269531 C 18.042969 -10.171875 18.042969 -10.171875 18.136719 -10.171875 L 32.148438 -2.589844 L 32.242188 -2.496094 C 32.53125 -2.398438 32.722656 -2.304688 32.914062 -2.207031 C 33.203125 -2.109375 33.492188 -1.917969 33.585938 -1.917969 C 33.683594 -1.824219 35.410156 -1.054688 37.042969 0 L 40.304688 1.917969 L 40.496094 2.015625 C 41.550781 2.304688 43.28125 3.359375 44.71875 4.125 L 45.773438 4.320312 C 46.253906 4.605469 45.96875 4.320312 46.832031 4.605469 L 47.980469 5.183594 C 48.269531 5.085938 49.421875 5.277344 49.421875 5.375 L 51.054688 4.796875 C 51.148438 4.703125 51.339844 4.320312 52.011719 4.03125 L 52.683594 2.207031 L 52.492188 1.726562 L 51.917969 1.152344 C 51.820312 1.152344 51.726562 1.054688 51.628906 0.769531 L 51.246094 0.191406 L 50.859375 -0.191406 L 50.957031 -0.671875 L 50.957031 -0.960938 L 50.765625 -1.824219 L 49.039062 -4.605469 L 46.640625 -7.003906 L 46.160156 -7.292969 C 45.679688 -7.003906 44.816406 -8.734375 44.816406 -8.828125 L 35.792969 -16.027344 L 33.394531 -17.5625 L 27.253906 -21.398438 L 27.0625 -21.496094 C 26.964844 -21.398438 25.71875 -22.167969 23.894531 -23.414062 L 24.085938 -23.414062 C 24.183594 -23.414062 24.183594 -23.414062 24.183594 -23.511719 L 24.472656 -23.703125 C 25.144531 -24.183594 26.679688 -25.335938 27.351562 -25.335938 L 28.886719 -26.199219 L 28.980469 -26.199219 C 29.171875 -26.292969 29.363281 -26.484375 29.652344 -26.679688 L 30.515625 -27.253906 L 31.378906 -27.351562 L 33.394531 -28.308594 L 33.683594 -28.5 L 34.066406 -28.695312 C 34.164062 -28.695312 34.929688 -28.980469 35.601562 -29.269531 L 36.945312 -29.84375 L 43.664062 -34.164062 L 43.761719 -34.257812 L 49.804688 -38.867188 L 52.683594 -41.167969 L 54.410156 -43.183594 C 55.851562 -44.816406 56.714844 -47.308594 58.539062 -47.789062 L 60.648438 -49.996094 L 61.035156 -51.054688 Z M 60.9375 -52.011719 "/></g></g></g><g fill="#a21f1f" fill-opacity="1"><g transform="translate(858.939829, 119.688985)"><g><path d="M 46.253906 -47.980469 C 46.160156 -48.75 45.96875 -49.613281 45.773438 -50.476562 L 45.679688 -51.339844 L 45.199219 -52.109375 C 43.28125 -54.316406 41.359375 -56.140625 38.960938 -56.140625 C 38.671875 -56.140625 38.480469 -56.140625 38.386719 -56.042969 C 38.195312 -56.140625 38 -56.140625 37.714844 -56.140625 C 37.425781 -56.140625 37.136719 -56.140625 36.945312 -56.042969 C 36.851562 -56.140625 36.660156 -56.140625 36.464844 -56.140625 L 36.179688 -56.140625 C 29.84375 -54.605469 27.445312 -55.949219 19.097656 -49.804688 C 15.257812 -47.40625 14.585938 -46.640625 14.105469 -45.488281 C 14.011719 -45.199219 14.105469 -45.199219 13.820312 -44.910156 L 13.628906 -44.335938 C 12.957031 -43.664062 11.613281 -42.417969 11.324219 -40.882812 C 9.691406 -35.890625 8.925781 -32.4375 8.828125 -32.148438 L 8.828125 -31.378906 C 8.925781 -31.285156 8.925781 -31.1875 8.925781 -31.1875 C 8.828125 -30.804688 8.734375 -30.421875 8.636719 -29.75 L 8.636719 -29.078125 C 10.363281 -22.265625 11.132812 -21.304688 15.257812 -17.464844 L 15.546875 -17.273438 C 18.90625 -14.683594 21.878906 -13.339844 22.742188 -12.285156 C 22.839844 -11.226562 24.183594 -10.554688 24.085938 -10.554688 L 25.335938 -9.5 C 26.390625 -9.019531 27.636719 -8.15625 28.023438 -7.867188 L 28.308594 -7.675781 C 28.308594 -7.773438 28.308594 -7.773438 28.40625 -7.773438 C 28.886719 -7.773438 30.230469 -5.949219 30.324219 -5.949219 L 30.324219 -5.855469 C 29.269531 -4.988281 28.308594 -2.976562 27.0625 -2.6875 C 25.144531 -2.6875 23.800781 -2.976562 22.933594 -3.453125 L 22.457031 -3.648438 C 18.90625 -4.320312 17.371094 -4.894531 16.507812 -5.183594 L 15.640625 -5.46875 C 14.492188 -5.46875 13.339844 -6.429688 11.132812 -6.429688 C 5.757812 -6.429688 5.183594 -3.359375 3.933594 -0.863281 L 3.648438 0.382812 L 4.605469 1.726562 C 4.894531 1.726562 5.277344 2.015625 5.660156 2.304688 L 6.332031 2.496094 L 6.71875 2.398438 C 7.773438 2.398438 8.347656 3.453125 8.445312 3.359375 L 8.828125 3.648438 C 9.117188 3.933594 11.324219 4.414062 16.792969 5.949219 L 17.082031 5.949219 C 17.847656 6.332031 19.960938 6.71875 21.785156 7.003906 L 22.265625 7.101562 L 22.167969 7.003906 L 22.359375 7.101562 C 23.320312 7.390625 24.375 7.484375 25.429688 7.484375 C 29.75 7.484375 37.332031 6.71875 40.402344 4.414062 L 43.472656 0.0976562 C 44.144531 -1.441406 44.238281 -2.878906 44.238281 -4.320312 C 44.238281 -11.707031 40.113281 -15.066406 38.289062 -16.890625 L 38 -17.082031 C 28.789062 -23.511719 26.484375 -22.550781 22.648438 -27.636719 C 22.265625 -28.308594 21.496094 -29.363281 21.496094 -29.75 L 21.496094 -29.84375 C 21.398438 -30.324219 21.398438 -30.804688 21.398438 -31.1875 C 21.398438 -34.257812 23.605469 -37.332031 23.605469 -37.425781 C 23.605469 -38.480469 27.351562 -42.320312 28.117188 -42.320312 L 28.308594 -42.417969 C 28.980469 -43.089844 31.285156 -44.046875 32.339844 -44.046875 C 33.011719 -43.953125 33.394531 -43.953125 33.78125 -43.953125 C 34.257812 -43.953125 34.644531 -43.953125 34.929688 -44.046875 L 39.34375 -42.703125 L 40.113281 -42.511719 C 40.882812 -42.511719 42.417969 -42.222656 42.417969 -42.894531 C 42.511719 -42.800781 42.800781 -42.800781 43.28125 -42.800781 C 45.101562 -42.800781 46.445312 -44.625 46.445312 -46.445312 C 46.445312 -46.832031 46.351562 -47.308594 46.253906 -47.980469 Z M 46.253906 -47.980469 "/></g></g></g><g fill="#a21f1f" fill-opacity="1"><g transform="translate(904.899765, 119.688985)"><g><path d="M 33.394531 -64.871094 C 31.957031 -66.695312 29.84375 -67.941406 28.214844 -67.941406 C 26.582031 -67.941406 23.605469 -66.984375 22.839844 -64.777344 L 21.785156 -61.800781 C 18.328125 -53.355469 14.585938 -45.199219 13.148438 -36.371094 C 12.476562 -32.050781 11.515625 -28.695312 11.515625 -24.183594 C 11.515625 -20.921875 11.613281 -16.984375 15.164062 -16.984375 C 20.152344 -17.464844 18.617188 -24.664062 20.054688 -27.351562 C 21.113281 -28.980469 22.648438 -31.667969 22.648438 -32.722656 L 22.648438 -33.394531 C 22.648438 -36.273438 27.351562 -43.761719 27.351562 -44.238281 L 27.351562 -44.335938 C 27.253906 -44.335938 27.253906 -44.335938 27.253906 -44.238281 L 28.308594 -45.390625 L 30.421875 -50.667969 C 31.859375 -54.410156 33.394531 -58.828125 33.683594 -62.953125 C 33.683594 -63.527344 33.585938 -64.199219 33.394531 -64.871094 Z M 20.726562 -5.660156 C 20.726562 -8.253906 17.753906 -9.5 17.464844 -9.980469 C 16.601562 -11.417969 14.011719 -12.859375 13.148438 -12.859375 C 12.476562 -12.859375 12.476562 -12.1875 11.996094 -12.1875 C 11.132812 -12.1875 10.078125 -13.148438 9.308594 -13.148438 C 7.867188 -13.148438 6.527344 -11.035156 5.855469 -11.035156 C 5.375 -10.941406 4.988281 -10.652344 4.703125 -9.980469 C 4.605469 -9.691406 4.511719 -9.40625 4.414062 -9.019531 L 4.414062 -8.636719 C 4.414062 -8.15625 3.359375 -6.046875 3.359375 -5.277344 C 3.359375 -3.070312 5.566406 -3.070312 5.757812 -2.398438 L 6.621094 -1.054688 L 6.621094 -1.917969 C 8.0625 1.535156 11.996094 3.167969 15.066406 3.167969 C 16.601562 3.167969 17.273438 1.917969 17.753906 1.824219 C 20.34375 1.054688 21.113281 -0.382812 21.113281 -2.398438 C 21.113281 -3.453125 20.535156 -4.511719 20.535156 -4.988281 Z M 20.34375 -4.703125 L 20.441406 -4.511719 C 20.34375 -4.414062 20.34375 -4.222656 20.054688 -4.125 Z M 20.34375 -4.703125 "/></g></g></g><g fill="#a21f1f" fill-opacity="1"><g transform="translate(936.849741, 119.688985)"><g/></g></g><path fill="#000000" d="M 74.050781 105.726562 C 73.65625 105.859375 65.746094 107.835938 62.582031 114.429688 C 60.734375 118.382812 60.867188 122.867188 63.238281 127.875 C 63.636719 128.800781 64.691406 129.457031 65.613281 129.457031 C 66.007812 129.457031 66.402344 129.328125 66.667969 129.195312 C 67.984375 128.535156 68.644531 127.085938 67.984375 125.636719 C 66.402344 122.074219 66.140625 119.042969 67.328125 116.671875 C 69.4375 112.320312 75.238281 110.871094 75.238281 110.871094 C 76.6875 110.472656 77.476562 109.023438 77.214844 107.707031 C 76.949219 106.125 75.5 105.332031 74.050781 105.726562 Z M 74.050781 105.726562 " fill-opacity="1" fill-rule="nonzero"/><path fill="#000000" d="M 62.054688 172.4375 L 59.417969 169.273438 L 58.492188 173.226562 L 54.671875 174.679688 L 58.230469 176.789062 L 58.492188 180.742188 L 61.527344 178.105469 L 65.480469 179.160156 L 63.898438 175.46875 L 66.140625 172.042969 Z M 62.054688 172.4375 " fill-opacity="1" fill-rule="nonzero"/><path fill="#000000" d="M 62.976562 189.445312 L 61.128906 187.070312 L 60.472656 189.972656 L 57.570312 191.15625 L 60.207031 192.609375 L 60.339844 195.640625 L 62.710938 193.664062 L 65.613281 194.453125 L 64.425781 191.683594 L 66.007812 189.179688 Z M 62.976562 189.445312 " fill-opacity="1" fill-rule="nonzero"/><g clip-path="url(#18c120aeae)"><path fill="#000000" d="M 81.433594 131.566406 C 81.433594 129.195312 82.621094 127.085938 84.332031 125.898438 C 87.234375 124.054688 88.949219 121.285156 90.660156 118.648438 C 91.058594 118.121094 91.453125 117.460938 91.714844 116.933594 C 94.089844 113.375 98.835938 111 103.449219 108.628906 C 105.425781 107.574219 107.667969 106.519531 109.515625 105.332031 C 111.625 104.015625 113.074219 102.035156 113.335938 99.664062 C 113.601562 97.421875 112.941406 95.3125 111.359375 93.597656 C 108.328125 90.304688 102.789062 89.644531 98.835938 92.015625 L 90.53125 95.972656 L 90.53125 61.300781 C 90.53125 56.683594 86.3125 52.863281 81.167969 52.863281 C 76.027344 52.863281 71.808594 56.683594 71.808594 61.300781 L 71.808594 73.429688 C 70.621094 72.902344 69.171875 72.636719 67.855469 72.636719 C 65.347656 72.636719 62.976562 73.558594 61.261719 75.140625 C 59.546875 73.558594 57.175781 72.636719 54.40625 72.636719 C 52.957031 72.636719 51.636719 72.902344 50.320312 73.429688 L 50.320312 63.144531 C 50.320312 58.925781 46.234375 55.5 40.960938 55.5 C 35.6875 55.5 31.597656 58.792969 31.597656 63.144531 L 31.597656 115.21875 C 31.597656 119.175781 33.839844 122.867188 37.664062 125.238281 C 39.773438 126.558594 40.960938 128.667969 40.960938 131.039062 L 40.960938 131.699219 C 40.960938 133.808594 42.015625 135.65625 43.597656 136.839844 L 43.070312 144.222656 C 41.089844 145.015625 39.640625 146.859375 39.378906 149.101562 L 38.980469 150.421875 L 35.816406 150.421875 C 34.367188 150.421875 33.179688 151.605469 33.179688 153.058594 C 33.179688 154.507812 34.367188 155.695312 35.816406 155.695312 L 37.796875 155.695312 L 37.269531 157.671875 C 37.269531 157.804688 37.136719 157.933594 37.136719 158.066406 C 37.003906 159.914062 37.53125 161.757812 38.71875 163.078125 C 39.507812 163.867188 40.433594 164.527344 41.488281 164.789062 L 37.269531 218.710938 C 37.136719 220.160156 38.324219 221.480469 39.773438 221.613281 C 41.222656 221.742188 42.542969 220.6875 42.671875 219.238281 L 47.023438 164.921875 L 75.5 164.921875 L 79.851562 219.105469 C 79.984375 220.558594 81.167969 221.613281 82.488281 221.613281 L 82.75 221.613281 C 84.203125 221.480469 85.386719 220.292969 85.257812 218.710938 L 81.039062 164.789062 C 82.09375 164.527344 83.015625 164 83.804688 163.078125 C 84.992188 161.757812 85.652344 159.914062 85.386719 158.066406 L 85.386719 157.671875 L 84.859375 155.695312 L 86.839844 155.695312 C 88.289062 155.695312 89.476562 154.507812 89.476562 153.058594 C 89.476562 151.605469 88.289062 150.421875 86.839844 150.421875 L 83.410156 150.421875 L 83.015625 149.101562 C 82.75 146.730469 81.167969 144.882812 79.324219 144.222656 L 78.664062 136.710938 C 80.378906 135.390625 81.433594 133.546875 81.433594 131.566406 Z M 64.03125 93.46875 L 64.03125 81.339844 C 64.03125 80.414062 64.425781 79.625 65.085938 78.964844 C 65.875 78.304688 66.929688 77.910156 67.984375 77.910156 C 70.226562 77.910156 71.941406 79.492188 71.941406 81.339844 L 71.941406 93.730469 C 71.941406 95.179688 70.09375 96.367188 67.984375 96.367188 C 66.800781 96.367188 65.746094 95.972656 64.953125 95.445312 C 64.558594 95.179688 64.03125 94.523438 64.03125 93.730469 Z M 50.582031 87.140625 L 50.582031 80.679688 C 50.582031 79.757812 51.242188 79.230469 51.636719 78.832031 C 52.429688 78.175781 53.484375 77.910156 54.671875 77.910156 C 56.910156 77.910156 58.625 79.230469 58.625 80.679688 L 58.625 93.730469 C 58.625 95.179688 56.78125 96.367188 54.671875 96.367188 C 53.484375 96.367188 52.429688 95.972656 51.636719 95.445312 C 51.242188 95.179688 50.714844 94.523438 50.714844 93.730469 L 50.714844 87.140625 Z M 50.582031 157.011719 C 49.132812 157.011719 47.945312 155.824219 47.945312 154.375 C 47.945312 152.925781 49.132812 151.738281 50.582031 151.738281 C 52.035156 151.738281 53.21875 152.925781 53.21875 154.375 C 53.351562 155.824219 52.035156 157.011719 50.582031 157.011719 Z M 48.738281 143.828125 L 49.132812 138.554688 L 73.523438 138.554688 L 73.917969 143.828125 Z M 61.394531 157.011719 C 59.945312 157.011719 58.757812 155.824219 58.757812 154.375 C 58.757812 152.925781 59.945312 151.738281 61.394531 151.738281 C 62.84375 151.738281 64.03125 152.925781 64.03125 154.375 C 64.03125 155.824219 62.84375 157.011719 61.394531 157.011719 Z M 72.074219 157.011719 C 70.621094 157.011719 69.4375 155.824219 69.4375 154.375 C 69.4375 152.925781 70.621094 151.738281 72.074219 151.738281 C 73.523438 151.738281 74.710938 152.925781 74.710938 154.375 C 74.710938 155.824219 73.523438 157.011719 72.074219 157.011719 Z M 76.027344 131.566406 C 76.027344 132.359375 74.839844 133.28125 73.257812 133.28125 L 49.398438 133.28125 C 47.816406 133.28125 46.628906 132.359375 46.628906 131.566406 L 46.628906 130.910156 C 46.628906 126.820312 44.519531 123 40.828125 120.757812 C 38.585938 119.308594 37.269531 117.328125 37.269531 115.21875 L 37.269531 63.144531 C 37.269531 62.089844 38.980469 60.773438 41.222656 60.773438 C 43.464844 60.773438 45.179688 61.957031 45.179688 63.144531 L 45.179688 93.730469 C 45.179688 95.972656 46.234375 98.082031 48.078125 99.53125 C 49.792969 100.851562 52.035156 101.640625 54.539062 101.640625 C 57.175781 101.640625 59.546875 100.71875 61.261719 99.269531 L 61.527344 99.53125 C 63.238281 100.851562 65.480469 101.640625 67.984375 101.640625 C 73.128906 101.640625 77.347656 98.082031 77.347656 93.730469 L 77.347656 61.300781 C 77.347656 59.585938 79.191406 58.136719 81.300781 58.136719 C 83.542969 58.136719 85.257812 59.585938 85.257812 61.300781 L 85.257812 100.324219 C 85.257812 101.246094 85.785156 102.035156 86.574219 102.5625 C 87.367188 103.089844 88.289062 103.089844 89.210938 102.695312 L 101.472656 96.761719 C 101.605469 96.761719 101.605469 96.632812 101.734375 96.632812 C 103.582031 95.578125 106.21875 95.839844 107.535156 97.160156 C 108.0625 97.6875 108.195312 98.34375 108.195312 98.871094 C 108.0625 99.53125 107.667969 100.191406 106.878906 100.71875 C 105.164062 101.773438 103.1875 102.828125 101.207031 103.882812 C 95.933594 106.519531 90.53125 109.289062 87.496094 114.035156 C 87.101562 114.691406 86.707031 115.21875 86.3125 115.878906 C 84.859375 118.253906 83.542969 120.230469 81.566406 121.417969 C 78.136719 123.527344 76.027344 127.347656 76.027344 131.566406 Z M 76.027344 131.566406 " fill-opacity="1" fill-rule="nonzero"/></g><g fill="#000000" fill-opacity="1"><g transform="translate(441.829878, 127.887049)"><g><path d="M 38.6875 -17.203125 C 38.976562 -16.054688 39.125 -14.617188 39.125 -12.890625 C 39.125 -11.242188 38.976562 -9.8125 38.6875 -8.59375 L 34.390625 -8.59375 C 34.679688 -7.445312 34.828125 -6.015625 34.828125 -4.296875 C 34.828125 -2.648438 34.679688 -1.21875 34.390625 0 L 12.890625 0 C 12.609375 -1.21875 12.46875 -2.648438 12.46875 -4.296875 C 12.46875 -6.015625 12.609375 -7.445312 12.890625 -8.59375 L 8.59375 -8.59375 C 8.3125 -9.8125 8.171875 -11.242188 8.171875 -12.890625 C 8.171875 -14.617188 8.3125 -16.054688 8.59375 -17.203125 L 4.296875 -17.203125 C 4.015625 -18.421875 3.875 -19.851562 3.875 -21.5 C 3.875 -23.21875 4.015625 -24.648438 4.296875 -25.796875 C 4.015625 -27.015625 3.875 -28.445312 3.875 -30.09375 C 3.875 -31.8125 4.015625 -33.242188 4.296875 -34.390625 C 4.015625 -35.609375 3.875 -37.039062 3.875 -38.6875 C 3.875 -40.414062 4.015625 -41.851562 4.296875 -43 L 8.59375 -43 C 8.3125 -44.21875 8.171875 -45.648438 8.171875 -47.296875 C 8.171875 -49.015625 8.3125 -50.445312 8.59375 -51.59375 L 12.890625 -51.59375 C 12.609375 -52.8125 12.46875 -54.242188 12.46875 -55.890625 C 12.46875 -57.609375 12.609375 -59.039062 12.890625 -60.1875 L 34.390625 -60.1875 C 34.679688 -59.039062 34.828125 -57.609375 34.828125 -55.890625 C 34.828125 -54.242188 34.679688 -52.8125 34.390625 -51.59375 L 38.6875 -51.59375 C 38.976562 -50.445312 39.125 -49.015625 39.125 -47.296875 C 39.125 -45.648438 38.976562 -44.21875 38.6875 -43 L 30.09375 -43 C 29.8125 -44.21875 29.671875 -45.648438 29.671875 -47.296875 C 29.671875 -49.015625 29.8125 -50.445312 30.09375 -51.59375 L 17.203125 -51.59375 C 17.484375 -50.445312 17.625 -49.015625 17.625 -47.296875 C 17.625 -45.648438 17.484375 -44.21875 17.203125 -43 L 12.890625 -43 C 13.179688 -41.851562 13.328125 -40.414062 13.328125 -38.6875 C 13.328125 -37.039062 13.179688 -35.609375 12.890625 -34.390625 C 13.179688 -33.242188 13.328125 -31.8125 13.328125 -30.09375 C 13.328125 -28.445312 13.179688 -27.015625 12.890625 -25.796875 C 13.179688 -24.648438 13.328125 -23.21875 13.328125 -21.5 C 13.328125 -19.851562 13.179688 -18.421875 12.890625 -17.203125 L 17.203125 -17.203125 C 17.484375 -16.054688 17.625 -14.617188 17.625 -12.890625 C 17.625 -11.242188 17.484375 -9.8125 17.203125 -8.59375 L 30.09375 -8.59375 C 29.8125 -9.8125 29.671875 -11.242188 29.671875 -12.890625 C 29.671875 -14.617188 29.8125 -16.054688 30.09375 -17.203125 Z M 38.6875 -17.203125 "/></g></g></g><g fill="#000000" fill-opacity="1"><g transform="translate(490.84205, 127.887049)"><g><path d="M 38.6875 -34.390625 C 38.976562 -33.242188 39.125 -31.8125 39.125 -30.09375 C 39.125 -28.445312 38.976562 -27.015625 38.6875 -25.796875 C 38.976562 -24.648438 39.125 -23.21875 39.125 -21.5 C 39.125 -19.851562 38.976562 -18.421875 38.6875 -17.203125 L 35.46875 -17.203125 C 35.757812 -16.054688 35.90625 -14.617188 35.90625 -12.890625 C 35.90625 -11.242188 35.757812 -9.8125 35.46875 -8.59375 L 30.09375 -8.59375 C 30.382812 -7.445312 30.53125 -6.015625 30.53125 -4.296875 C 30.53125 -2.648438 30.382812 -1.21875 30.09375 0 L 12.890625 0 C 12.609375 -1.21875 12.46875 -2.648438 12.46875 -4.296875 C 12.46875 -6.015625 12.609375 -7.445312 12.890625 -8.59375 L 7.53125 -8.59375 C 7.238281 -9.8125 7.09375 -11.242188 7.09375 -12.890625 C 7.09375 -14.617188 7.238281 -16.054688 7.53125 -17.203125 L 4.296875 -17.203125 C 4.015625 -18.421875 3.875 -19.851562 3.875 -21.5 C 3.875 -23.21875 4.015625 -24.648438 4.296875 -25.796875 C 4.015625 -27.015625 3.875 -28.445312 3.875 -30.09375 C 3.875 -31.8125 4.015625 -33.242188 4.296875 -34.390625 C 4.015625 -35.609375 3.875 -37.039062 3.875 -38.6875 C 3.875 -40.414062 4.015625 -41.851562 4.296875 -43 L 7.53125 -43 C 7.238281 -44.21875 7.09375 -45.648438 7.09375 -47.296875 C 7.09375 -49.015625 7.238281 -50.445312 7.53125 -51.59375 L 12.890625 -51.59375 C 12.609375 -52.8125 12.46875 -54.242188 12.46875 -55.890625 C 12.46875 -57.609375 12.609375 -59.039062 12.890625 -60.1875 L 30.09375 -60.1875 C 30.382812 -59.039062 30.53125 -57.609375 30.53125 -55.890625 C 30.53125 -54.242188 30.382812 -52.8125 30.09375 -51.59375 L 35.46875 -51.59375 C 35.757812 -50.445312 35.90625 -49.015625 35.90625 -47.296875 C 35.90625 -45.648438 35.757812 -44.21875 35.46875 -43 L 38.6875 -43 C 38.976562 -41.851562 39.125 -40.414062 39.125 -38.6875 C 39.125 -37.039062 38.976562 -35.609375 38.6875 -34.390625 Z M 30.09375 -17.203125 C 29.8125 -18.421875 29.671875 -19.851562 29.671875 -21.5 C 29.671875 -23.21875 29.8125 -24.648438 30.09375 -25.796875 C 29.8125 -27.015625 29.671875 -28.445312 29.671875 -30.09375 C 29.671875 -31.8125 29.8125 -33.242188 30.09375 -34.390625 C 29.8125 -35.609375 29.671875 -37.039062 29.671875 -38.6875 C 29.671875 -40.414062 29.8125 -41.851562 30.09375 -43 L 26.875 -43 C 26.582031 -44.21875 26.4375 -45.648438 26.4375 -47.296875 C 26.4375 -49.015625 26.582031 -50.445312 26.875 -51.59375 L 16.125 -51.59375 C 16.40625 -50.445312 16.546875 -49.015625 16.546875 -47.296875 C 16.546875 -45.648438 16.40625 -44.21875 16.125 -43 L 12.890625 -43 C 13.179688 -41.851562 13.328125 -40.414062 13.328125 -38.6875 C 13.328125 -37.039062 13.179688 -35.609375 12.890625 -34.390625 C 13.179688 -33.242188 13.328125 -31.8125 13.328125 -30.09375 C 13.328125 -28.445312 13.179688 -27.015625 12.890625 -25.796875 C 13.179688 -24.648438 13.328125 -23.21875 13.328125 -21.5 C 13.328125 -19.851562 13.179688 -18.421875 12.890625 -17.203125 L 16.125 -17.203125 C 16.40625 -16.054688 16.546875 -14.617188 16.546875 -12.890625 C 16.546875 -11.242188 16.40625 -9.8125 16.125 -8.59375 L 26.875 -8.59375 C 26.582031 -9.8125 26.4375 -11.242188 26.4375 -12.890625 C 26.4375 -14.617188 26.582031 -16.054688 26.875 -17.203125 Z M 30.09375 -17.203125 "/></g></g></g><g fill="#000000" fill-opacity="1"><g transform="translate(539.854223, 127.887049)"><g><path d="M 38.6875 -34.390625 C 38.976562 -33.242188 39.125 -31.8125 39.125 -30.09375 C 39.125 -28.445312 38.976562 -27.015625 38.6875 -25.796875 C 38.976562 -24.648438 39.125 -23.21875 39.125 -21.5 C 39.125 -19.851562 38.976562 -18.421875 38.6875 -17.203125 L 34.390625 -17.203125 C 34.679688 -16.054688 34.828125 -14.617188 34.828125 -12.890625 C 34.828125 -11.242188 34.679688 -9.8125 34.390625 -8.59375 L 30.09375 -8.59375 C 30.382812 -7.445312 30.53125 -6.015625 30.53125 -4.296875 C 30.53125 -2.648438 30.382812 -1.21875 30.09375 0 L 4.296875 0 C 4.015625 -1.21875 3.875 -2.648438 3.875 -4.296875 C 3.875 -6.015625 4.015625 -7.445312 4.296875 -8.59375 C 4.015625 -9.8125 3.875 -11.242188 3.875 -12.890625 C 3.875 -14.617188 4.015625 -16.054688 4.296875 -17.203125 C 4.015625 -18.421875 3.875 -19.851562 3.875 -21.5 C 3.875 -23.21875 4.015625 -24.648438 4.296875 -25.796875 C 4.015625 -27.015625 3.875 -28.445312 3.875 -30.09375 C 3.875 -31.8125 4.015625 -33.242188 4.296875 -34.390625 C 4.015625 -35.609375 3.875 -37.039062 3.875 -38.6875 C 3.875 -40.414062 4.015625 -41.851562 4.296875 -43 C 4.015625 -44.21875 3.875 -45.648438 3.875 -47.296875 C 3.875 -49.015625 4.015625 -50.445312 4.296875 -51.59375 C 4.015625 -52.8125 3.875 -54.242188 3.875 -55.890625 C 3.875 -57.609375 4.015625 -59.039062 4.296875 -60.1875 L 30.09375 -60.1875 C 30.382812 -59.039062 30.53125 -57.609375 30.53125 -55.890625 C 30.53125 -54.242188 30.382812 -52.8125 30.09375 -51.59375 L 34.390625 -51.59375 C 34.679688 -50.445312 34.828125 -49.015625 34.828125 -47.296875 C 34.828125 -45.648438 34.679688 -44.21875 34.390625 -43 L 38.6875 -43 C 38.976562 -41.851562 39.125 -40.414062 39.125 -38.6875 C 39.125 -37.039062 38.976562 -35.609375 38.6875 -34.390625 Z M 30.09375 -17.203125 C 29.8125 -18.421875 29.671875 -19.851562 29.671875 -21.5 C 29.671875 -23.21875 29.8125 -24.648438 30.09375 -25.796875 C 29.8125 -27.015625 29.671875 -28.445312 29.671875 -30.09375 C 29.671875 -31.8125 29.8125 -33.242188 30.09375 -34.390625 C 29.8125 -35.609375 29.671875 -37.039062 29.671875 -38.6875 C 29.671875 -40.414062 29.8125 -41.851562 30.09375 -43 L 25.796875 -43 C 25.503906 -44.21875 25.359375 -45.648438 25.359375 -47.296875 C 25.359375 -49.015625 25.503906 -50.445312 25.796875 -51.59375 L 12.890625 -51.59375 C 13.179688 -50.445312 13.328125 -49.015625 13.328125 -47.296875 C 13.328125 -45.648438 13.179688 -44.21875 12.890625 -43 C 13.179688 -41.851562 13.328125 -40.414062 13.328125 -38.6875 C 13.328125 -37.039062 13.179688 -35.609375 12.890625 -34.390625 C 13.179688 -33.242188 13.328125 -31.8125 13.328125 -30.09375 C 13.328125 -28.445312 13.179688 -27.015625 12.890625 -25.796875 C 13.179688 -24.648438 13.328125 -23.21875 13.328125 -21.5 C 13.328125 -19.851562 13.179688 -18.421875 12.890625 -17.203125 C 13.179688 -16.054688 13.328125 -14.617188 13.328125 -12.890625 C 13.328125 -11.242188 13.179688 -9.8125 12.890625 -8.59375 L 25.796875 -8.59375 C 25.503906 -9.8125 25.359375 -11.242188 25.359375 -12.890625 C 25.359375 -14.617188 25.503906 -16.054688 25.796875 -17.203125 Z M 30.09375 -17.203125 "/></g></g></g><g fill="#000000" fill-opacity="1"><g transform="translate(588.866398, 127.887049)"><g><path d="M 17.203125 -25.796875 C 17.484375 -24.648438 17.625 -23.21875 17.625 -21.5 C 17.625 -19.851562 17.484375 -18.421875 17.203125 -17.203125 C 17.484375 -16.054688 17.625 -14.617188 17.625 -12.890625 C 17.625 -11.242188 17.484375 -9.8125 17.203125 -8.59375 L 34.390625 -8.59375 C 34.679688 -7.445312 34.828125 -6.015625 34.828125 -4.296875 C 34.828125 -2.648438 34.679688 -1.21875 34.390625 0 L 8.59375 0 C 8.3125 -1.21875 8.171875 -2.648438 8.171875 -4.296875 C 8.171875 -6.015625 8.3125 -7.445312 8.59375 -8.59375 C 8.3125 -9.8125 8.171875 -11.242188 8.171875 -12.890625 C 8.171875 -14.617188 8.3125 -16.054688 8.59375 -17.203125 C 8.3125 -18.421875 8.171875 -19.851562 8.171875 -21.5 C 8.171875 -23.21875 8.3125 -24.648438 8.59375 -25.796875 C 8.3125 -27.015625 8.171875 -28.445312 8.171875 -30.09375 C 8.171875 -31.8125 8.3125 -33.242188 8.59375 -34.390625 C 8.3125 -35.609375 8.171875 -37.039062 8.171875 -38.6875 C 8.171875 -40.414062 8.3125 -41.851562 8.59375 -43 C 8.3125 -44.21875 8.171875 -45.648438 8.171875 -47.296875 C 8.171875 -49.015625 8.3125 -50.445312 8.59375 -51.59375 C 8.3125 -52.8125 8.171875 -54.242188 8.171875 -55.890625 C 8.171875 -57.609375 8.3125 -59.039062 8.59375 -60.1875 L 34.390625 -60.1875 C 34.679688 -59.039062 34.828125 -57.609375 34.828125 -55.890625 C 34.828125 -54.242188 34.679688 -52.8125 34.390625 -51.59375 L 17.203125 -51.59375 C 17.484375 -50.445312 17.625 -49.015625 17.625 -47.296875 C 17.625 -45.648438 17.484375 -44.21875 17.203125 -43 C 17.484375 -41.851562 17.625 -40.414062 17.625 -38.6875 C 17.625 -37.039062 17.484375 -35.609375 17.203125 -34.390625 L 34.390625 -34.390625 C 34.679688 -33.242188 34.828125 -31.8125 34.828125 -30.09375 C 34.828125 -28.445312 34.679688 -27.015625 34.390625 -25.796875 Z M 17.203125 -25.796875 "/></g></g></g></svg>